<?xml version="1.0" encoding="UTF-8"?>
<svg version="1.1" viewBox="0 0 2048 1316" width="1280" height="1280" xmlns="http://www.w3.org/2000/svg">
<path transform="translate(1449,286)" d="m0 0h19l19 5 19 8 16 10 13 10 14 12 13 10 14 12 12 11 17 17 8 10 7 10 9 16 7 15 7 20 4 12 8 9 11 9 15 13 10 12 9 16 8 20 20 61 11 41 6 26 1 7 1 17 1 130v25l-1 23-2 17-5 17-7 16-6 8-7 4-16 5-35 9-23 5-33 4-53 4-29 4-27 6-21 6-9 3-9 2h-2l-11 10-18 11-11 7-16 8-17 7-24 6-24 4-10 1h-50l-84-3h-48l-71 4-95 3-61 1h-27l-149-2-50-2-35-3-25-5-13-4-8-5-6-7-1-3v-9l4-6 5-4 6-2-20-9-14-9-12-11-13-17-9-16-6-15-6-24-5-27-2-15-1-16v-18l-6-42-1-9v-49l3-38 4-24 6-20 13-41 7-20 9-15 8-10 22-22 12-9 15-7 27-8 20-4 7-2 21-3 12-4 24-11 9-5 8-5 33-16 20-12 30-23 13-11 10-9 11-9 10-9 10-8 20-15 19-13 26-16 17-10 19-10 19-6 12-3 7-1h30l43 6 31 3 15 1h25l57-3 87-3 71-1 21-3 9-3 18-3zm138 554-30 8-12 3v1l10-1h21l17 4v-9l-2-6zm-46 12m-4 1m56 3m-737 48-12 3-16 8-5 4-2 6 15-8 8-5 12-5 4-3zm-134 3-10 4-6 4-3 4v6l5 5 5 3 6-1 5-5 4-5 2-10-2-4z" fill="#0B0A0A"/>
<path transform="translate(1449,286)" d="m0 0h19l19 5 19 8 16 10 13 10 14 12 13 10 14 12 12 11 17 17 8 10 7 10 9 16 7 15 7 20 4 12 8 9 11 9 15 13 10 12 8 14-1 2-2-1-2 4-7 3-35 4-41 4-14 2-24 3-20 3-21 4-31 5-24 5-17 3-10 2 2 5-2 10-7 14-7 8h-25l-9 2-12 6-2 2h-3v2l-5 2-2 4-5 5-7 8-7 11-8 16-8 24-4 18-3 9-7 35-11 68-2 10-2 1h-13l-2-1v-17l-3-3-6-3-4-6-2 1 3-11v-23l-2-26-3-16-4-29-5-18v-2h-2l-6-12-3-3v-2l-18-2-1-1-22-2v-2l6-1 31-3 13-1 8-3 1-7-3-4-4-1-8 2-12-1 2-2 10-2 8-3 6-3 3-3h2l1-4h2v-3h2v-3h2l2-6 2-9h2l1-6h-2l-2-3-7 9-2 3-3-1-3-6-11-4-6-1h-31l-82 6-78 5h-12l-9-1-3-4v-2h-6l-2-3-7-1v2l-10 2-68 1-14 1h-83l-108-2-32-2-3-2 2-2 10-1 51-1 47-2 70-2 46-2 19-2 103-5 127-7 45-6 26-5 11-3-1-1-24 3h-19l-21-2-10-2h-20l-24 2h-17l-27 3h-8l-2-1 2-4 7-4 8-6 9-6 16-8 3-3-1-3h-9l-14 7-23 14-17 11-12 7-14 3-51 5-15 2-28 2h-72l-27 1h-34l-48-1-62 2h-20l-25-1-49-6-34-6h-9l-1 3 8 1 50 8 14 2v2h2l-1 5-3 1-21 1-50-8-9-1 11 3 42 7 16 2 16 6 6 5-1 4-4 1h-9l-52-7-27-5-5-1-1-4 7-14 10-14 24-24 12-9 15-7 27-8 20-4 7-2 21-3 12-4 24-11 9-5 8-5 33-16 20-12 30-23 13-11 10-9 11-9 10-9 10-8 20-15 19-13 26-16 17-10 19-10 19-6 12-3 7-1h30l43 6 31 3 15 1h25l57-3 87-3 71-1 21-3 9-3 18-3z" fill="#9A9C9C"/>
<path transform="translate(1133,509)" d="m0 0h9l2 4-7 6-16 8-13 9-5 4-4 2-1 2h12l27-3h15l24-2h20l10 2 21 2h19l24-3h5l-4 3-15 4-29 5-38 5-163 9-51 2-24 2-33 2-54 2-69 2-18 1-51 1-10 1-1 1 2 1 33 2 107 2h83l14-1 68-1 10-1v-2h7l2 3 6 1 3 5 9 1h12l108-7 52-4h31l13 3 5 3 3 6h2l4-6 5-6 2 1v3h2l-1 6h-2v7l-4 8h-2v3h-2v3h-2l-1 4-8 6-10 3-5 2-6 1 10 1 9-2 5 3 2 3-1 7-5 3-4 1-37 3-13 1v2h13l9 1 1 1 13 2 5 1 7 10 2 4v3h2l6 20 6 42 2 12 1 17v23l-4 11-5 8-5 4-12 4-24 4-27 2h-23l-13-4-12-6-8-5v-2h-2v-2l-4-2-10-7-17-12-2-1v-2l-5-2-12-9-3-1v-2l-5-2-6-3-3-2v-2l-9-3-16-5-22-5-28-2-45 2-27 2-9 1-2-21-1-3-3-1-176-1v11l-1 15h-104l-6 1v2l85 2 3 1-1 5-88 1-9 4-8 7-3 1-2 4-8 11-13 18-7 11-10 13-5 1-16-4-4 1-12-3v2l10 2 21 6-1 5-29-4-3-1-1 4v-18l-6-42-1-9v-49l3-38 4-24 6-20 13-41 4-12 2-1v2l10 1 36 6 38 5h9l4-1-1-4-8-5-12-4-27-4-36-6-7-2 1-2 21 3 38 6 21-1 3-1 1-4h-2v-2l-14-1-50-8-8-2-1-3 2-1h9l40 7 43 5 25 1h20l63-2 62 1h22l34-1h65l25-2 16-2 50-5 14-3 12-7 22-14 20-12z" fill="#676A6B"/>
<path transform="translate(1449,286)" d="m0 0h19l19 5 19 8 16 10 13 10 14 12 13 10 14 12 12 11 17 17 8 10 7 10 9 16 7 15 5 13v14l-4 13-6 6-19 5-16 3-7 3 1 2-18 5-39 6-54 7-10 1-1 22-5 2-9 3-16 12-12 10-7 4-7-1-7-6-4-5 1-9 3-6h2v-4h2l-2-15-2-1-10 1-13 4-33 8-14 6-16 11-1-3-3-1v-2l4-1v-2l6-1v-2l-6 1h-11l3-2 19-4 31-6 10-2h4v-2l21-5 5-1v-3h2l1-4 4-4 4-8 3-10 5-3 6-1 4 2 1 5 1-1v-13h-7l-4 1-1 2h-60l-38-5-12-1h-65l-27 4-10 3-4 2-10 2-16 5h-8l4-3 22-7 15-3 2-1-10-2-3-1-38-2-21-2-28-1-28-2-20-1-48-1-2-1 1-5 11-7 9-3 9 1 6 2h19l16-3 14-1 9-4v-22l3-14 4-11 8-13 4-5 14-7 6-5 9-12 9-6 15-6 12-4 16-8 16-5 1-1-70-1h-114l-28 1-5 2-27 3-13 3-1 1-15 1v-3l15-9 18-10 13-6 26-7 7-1h30l43 6 31 3 15 1h25l57-3 87-3 71-1 21-3 9-3 18-3z" fill="#282829"/>
<path transform="translate(1231,579)" d="m0 0h31l13 3 5 3 3 6h2l4-6 5-6 2 1v3h2l-1 6h-2v7l-4 8h-2v3h-2v3h-2l-1 4-8 6-10 3-23 3-31 2-22 1h-25l-17-2-7-1-2-2-33-5-29-2 8 16 4 9 1 4v13l-6 8-4 4h-2v2l-16 8-11 5-12 5-13 4-10 2-68 4-1-10-1 8h-2v3l-15 2-34 2v1h-16l-11-1-36-1-8-1-19-1-52-1-7-1-36-2-20-3-20-6-23-11-10-8-7-9-3-7v-12l5-13 10-14 10-10 5-7h2l2-4 3-5 3-1-1-2-4-1v-2l-5-1-4-3 20 1 33 2 24 1 53 1h157l14-1 68-1 10-1v-2h7l2 3 6 1 3 5 9 1h12l108-7z" fill="#0C0B0B"/>
<path transform="translate(1641,449)" d="m0 0 2 3 4 12 8 9 11 9 15 13 10 12 8 14-1 2-2-1-2 4-7 3-35 4-41 4-14 2-24 3-20 3-21 4-31 5-24 5-17 3-10 2 2 5-2 10-7 14-7 8h-25l-9 2-12 6-2 2h-3v2l-5 2-2 4-5 5-7 8-7 11-8 16-8 24-4 18-3 9-7 35-11 68-2 10-2 1h-13l-2-1v-17l-3-3-6-3-4-6-2 1 3-11v-23l-2-26-3-16-4-29-5-18v-2h-2l-6-12-3-3v-2l-18-2-1-1-22-2v-2l6-1 31-3 13-1 8-3 1-7-3-4-4-1-8 2-12-1 2-2 10-2 8-3 6-3 3-3h2l1-4h2v-3h2v-3h2l2-6 2-9h2l1-6h-2l-2-3-7 9-2 3-3-1-3-6-11-4-6-1h-31l-82 6-78 5h-12l-9-1-3-4v-2h-6l-2-3-7-1v2l-10 2h-24l1-2 18-1 12-1 4-2h15l39-3 71-9 27-3 59-8 10-2 38-6 10-3v-5l-17-1 4-2 15-4 14-4 10-3 3-3 3-6 8-7h2v-2l16-12 4-5 9-3-1-4-4-2-9 2-31 9-25 5-22 4-21 3-14-3v-2l8-3 17-4 11-2 3-1v-2l2-2-18-5-7-3h-14l-13-2h-15l-8 2-4-1 16-4 21-3h65l37 4 13 2h54l6 1 1-3 4-1h7l1 3v12h-2v-2l-2-1v-2l-5-1-8 3-4 13-6 9h-2l-1 4h-2v3l-16 5-10 1v2l-38 8-22 4-4 1h14v2l-6 1v2l-4 1v2l4 1v2l18-12 15-6 38-9 9-3h6l3 2 1 15h-2v4h-2l-3 9v8l3 1 5 5 4 3 8-1 11-9 15-12 10-6 9-2 1-20 1-2 24-4 55-7 28-5 11-3 4-4 9-3 25-5 7-3 4-4 4-13z" fill="#676A6B"/>
<path transform="translate(1042,318)" d="m0 0h114l71 1-2 3-16 5-12 6-12 5-15 5-9 5-5 4-9 12-8 6-12 6-8 13-4 8-4 14-1 6v22l-5 3-5 2-14 1-16 3h-19l-9-3-10 1-10 5-6 4-1 4 50 1 39 2 9 1 28 1 35 3 24 1 6 2 7 1 1 2-25 6-17 6 2 2-7 1-4-2 3-2 8-3 2-3-21-2-100-2-32-1-6-1-18-1-66 1h-72l-2-2-4-1h-7l-6 3-10 2-18 1-14 3h-16l-7-1 3-2h12l15-2 3-3-12-2h-10l-12 3-6 2-20 3-5 1h-7l1-2 9-5 8-5 33-16 20-12 30-23 13-11 10-9 11-9 10-9 10-8 20-15 19-13 19-12 3 1 14-1 9-3 22-3 13-2 2-1z" fill="#66696A"/>
<path transform="translate(1133,509)" d="m0 0h9l2 4-7 6-16 8-13 9-5 4-4 2-1 2h12l27-3h15l24-2h20l10 2 21 2h19l24-3h5l-4 3-15 4-29 5-38 5-163 9-51 2-24 2-33 2-54 2-69 2-18 1-51 1-10 1-1 1 2 1 33 2 62 1 17 1v1h-46l-53-1-45-2-30-2 7 3v2l5 1 1 3h-4l-1 4-4 5h-2l-2 4-9 10-7 8-7 11-4 11v12l5 10 7 8 11 7 19 9 25 7 15 2 36 2 7 1 52 1 21 1 6 1 37 1 10 1h15v-1l35-2 15-1v-3h2v-8l2-1v11l17-2 39-2h7l-4 2-11 2-28 3-11 3-25 1h-15v2l-10 1-40 1-25 2-6 1h-88v11l-1 15h-104l-6 1v2l85 2 3 1-1 5-88 1-9 4-8 7-3 1-2 4-8 11-13 18-7 11-10 13-5 1-16-4-4 1-12-3v2l10 2 21 6-1 5-29-4-3-1-1 4v-18l-6-42-1-9v-49l3-38 4-24 6-20 13-41 4-12 2-1v2l10 1 36 6 38 5h9l4-1-1-4-8-5-12-4-27-4-36-6-7-2 1-2 21 3 38 6 21-1 3-1 1-4h-2v-2l-14-1-50-8-8-2-1-3 2-1h9l40 7 43 5 25 1h20l63-2 62 1h22l34-1h65l25-2 16-2 50-5 14-3 12-7 22-14 20-12z" fill="#676A6B"/>
<path transform="translate(1707,543)" d="m0 0 2 3 4 12v4h-2v10l7 14 1 1v12l-14 6-7 7-5 4-7 14-6 18-4 18-2 13h-2v9h-2l-1 10-1 11-1 1-1 30-16 4-28 9-10 3-33 9-9 3-15 4-9 3-21 6-12 4-8 2-13 5h-6l-4-9-3-12-1-6-1-63v-22h-2l-2-18-2-9-2-5-2-10-3-6v-6h2l1-6 4-5 9-3 21-10 15-6 10-3 5-3 10-3 18-6 65-14 21-3 2-1 22-1 7-2 10-5 4-4h2l1-3 6-4h7z" fill="#66696A"/>
<path transform="translate(1283,315)" d="m0 0h113l21 3 9 2 2 4-1 12-8 41-7 33-11 41-3 7-4 1-1-4 2-15-13 5-3 2h-6l-4-2-1-4-17-3-9-3-22-5-30-3-2-1-4-11-2-6-1-13-2 5 1 11-4 8-10 5-13 4-15 3-18 7-7 5-11 5-30 6-34 3-1 1 40 2 44 4 13 2h55l23 1 18 2v1l-20-1h-65l-27 4-10 3-4 2-10 2-16 5h-8l4-3 22-7 15-3 2-1-10-2-3-1-38-2-21-2-28-1-28-2-20-1-48-1-2-1 1-5 11-7 9-3 9 1 6 2h19l16-3 14-1 9-4v-22l3-14 4-11 8-13 4-5 14-7 6-5 9-12 9-6 15-6 12-4 16-8 16-5 1-1-41-1v-1z" fill="#282829"/>
<path transform="translate(627,990)" d="m0 0 9 3 3 8 10 4 26 4 26 1 29-1 53-4h39l44 2 37 1h68l43-2 26-2 31-3 26-3 17-1h40l23 2 24 4 14 3 28 7 21 4 13 3 14 2 9-3h2v-5l8 1 7 3 4 1 8 4 21 4h22l15-3h5l-2 2-24 6-24 4-10 1h-50l-84-3h-48l-71 4-95 3-61 1h-27l-149-2-50-2-35-3-25-5-13-4-8-5-6-7-1-3v-9l4-6 5-4z" fill="#282829"/>
<path transform="translate(1283,315)" d="m0 0h113l21 3 9 2 2 4-1 12-8 41-7 33-11 41-3 7-4 1-1-4 1-8h2l1-9 10-41 2-7-9 4h-6l-3-3-1-8-5 3-13 26-8-1-3-4 1-26 2-13 3-6-1-7-5-3-13-2h-23l-34 3-14 3-11 5-18 5-28 10-22 9-18 10-21 10-15 10-19 13h-2v2l-8 5-4 14-2 1-27 2-21 1-7 3 3 1 109 5 43 4 8 2 7 4v1l-16 4-4 2-10 2-16 5h-8l4-3 22-7 15-3 2-1-10-2-3-1-38-2-21-2-28-1-28-2-20-1-48-1-2-1 1-5 11-7 9-3 9 1 6 2h19l16-3 14-1 9-4v-22l3-14 4-11 8-13 4-5 14-7 6-5 9-12 9-6 15-6 12-4 16-8 16-5 1-1-41-1v-1z" fill="#444545"/>
<path transform="translate(612,850)" d="m0 0 13 4 3 3 8 1 79 3 51 1 31 1 1 1 77 2 216 2 28 1v2h2v2l4 2 7 9-1 5-2 5-6 2-16-1-10-1-17 1-74 2-111 1h-73l-57-2h-49l-21-1-85-2-5-2-3-5-1-8-7 1-17-6-29-9-9-2v-7l16 2 34 1h14l5-3z" fill="#282829"/>
<path transform="translate(1641,449)" d="m0 0 2 3 4 12 8 9 11 9 15 13 10 12 8 14-1 2-2-1-2 4-7 3-35 4-41 4-14 2-24 3-20 3-21 4-31 5-24 5-17 3-10 2 2 5-2 10-7 14-7 8h-25l-9 2-12 6-2 2h-3v2l-5 2-2 4-5 5-7 8-7 11-7 14h-15l-13-3-2-5 2-2 16-5 7-2 5-3 2-4 5-2h3v-2h2l3-9v-10l4-11 3-10 2-3 5-18 3-16 1-3 1-14 3-10 6-4 12-3 2 7v7h-2v4h-2l-3 9v8l3 1 5 5 4 3 8-1 11-9 15-12 10-6 9-2 1-20 1-2 24-4 55-7 28-5 11-3 4-4 9-3 25-5 7-3 4-4 4-13z" fill="#999B9B"/>
<path transform="translate(1696,522)" d="m0 0 4 1 7 17-1 5h-7l-6 4-4 4h-2l-1 3-11 6-9 1-19 1-13 3-14 2-52 11-19 5-10 4-11 3-5 3-18 6-16 8-11 5-8 3-4 9h-2l2 8 3 7-1 4-2-3-2 2-1 5-20-8h-13l-10 4-4 2v2l-8 6-2 3h-2v2h-2l-2 4-5 7-8 14-9 8-3 1-11-1-9-1-4-6v-2h-3v-2h-4l-1-3 7-20 8-16 10-15 8-9 7-6h2v-2l11-6 9-4 6-1h25l8-10 6-14 1-7-1-5 15-4 59-11 26-4 8-2 39-5 33-4 40-4 17-2 7-3z" fill="#464747"/>
<path transform="translate(1017,322)" d="m0 0h31l1 2-16 16-5 6-4 7-13 18-11 12-7 7-8 7-4 5h-2v2h-2l-1 3-22 18-5 4-10 7-6 5-10 6-19 8-12 5-9 3-11 1h-13l-2-1-10 1-3 2-7 1-5-2-23-2-11-2-2-2 3-4 5-3 9-10 9-7 6-7 8-6 16-15 13-13 8-7 3-4 5-5 13-11 19-14 19-13 19-12 3 1 14-1 5-2z" fill="#E1E2E2"/>
<path transform="translate(1188,650)" d="m0 0h56l13 2 5 1 7 10 3 7 5 21 4 33v29l-4 12-8 10-5 3h-2v2l-2 1-9 1h-42l-12-4-15-8-13-10-11-9-10-8-14-10-13-12-8-10-3-7v-11h18l27-4 20-12 8-5h5l1-3 22-2h29l12 3 5 5 4 12 6 28 1 10v21l-5 13-5 4-4 4-10 4-13 1v-2l3-2-6 1h-9l-5-3-9-11-9-7-19-10-10-5 6 8 14 12 5 4 3 1 1 2 3 1 3 3 12 7 5 1h29l10-3 8-7 4-6 1-3v-26l-5-34-4-17-6-11-4-3-10-2h-76l-12 3h-4v-3l-15 1-16-1-8-2 2-2 14-2z" fill="#0C0B0B"/>
<path transform="translate(1481,333)" d="m0 0h13l8 3 8 7 7 10 9 19 15 43 5 16v6h34l-6-7-15-37-10-27-8-21v-1h8l14 8 7 5 7 4 10 9 9 10 10 15 7 12 8 29 3 14 1 16 1 7-3 4-10 2h-6l-3-5-4-13-3-11-7-5 1 3-7 1-10-2-11 1v2l-14 1-10 1-13-1-10-3-30-1-9-1-1 18-5-5-3-5-4-16-6-25-4-20-1-6v-12l5-17 7-14 6-7z" fill="#444545"/>
<path transform="translate(1651,610)" d="m0 0h6l9 6 2 10-1 34-2 12-3 8-4 4-11 2-19 3-34 7-21 6-17 5-20 8-14 6-15 7-15 9-8 1-2-3v-17l3-13 6-11 6-7 8-7 16-20 8-8 16-8 15-7 16-5 24-6 13-5 29-9z" fill="#454646"/>
<path transform="translate(1029,320)" d="m0 0h97l1 3-12 16-5 5-9 11-1 7 2 8-1 7-6 6-9 5-8 6h-2l-1 3-6 5h-8l-3-4-5 1-11 6-12 9-7 5-1 2h-2v2l-11 8-10 7-11 8-6 4-15 12-21 5-30 2h-37l-24-3-1-1h-6l-3 2-6 1-22-1-18-4-8-1v2l-4 1v-2l5-4 6-2v3l11 2 23 2 6 2 7-2 6-2h6l2 1h13l16-2 11-5 13-5 16-8 9-6 7-6 9-6 10-9 8-6h2l1-3 3-3h2v-2l12-12 8-7 8-8 14-19 5-7 3-5 11-12 8-9h-31l-32 3h-8v-1l22-3z" fill="#999B9B"/>
<path transform="translate(1011,735)" d="m0 0 19 1 19 3 23 6 14 6v2l14 7v2l4 1 11 8 5 3v2l5 2 28 20v2h2v2l6 2 5 4 14 6 8 2h23l27-2 24-4 12-4 6-5 3-6 4-2 4 7 6 3 3 3v15l-1 2h16l1-5h1v6l-3 2-20 2-2 1h10l9 1 1 4-7 2-89 6h-27l-11-3-10-4-13-8-13-10-9-6v-2l-4-2-16-11-10-7-20-13-14-9-7-3-9-1-12 6-6 5-36 4-23 1h-26v2l-13 4h-7v-44l9-2 27-2z" fill="#272728"/>
<path transform="translate(1231,579)" d="m0 0h31l13 3 5 3 3 6h2l4-6 5-6 2 1v3h2l-1 6h-2v7l-4 8h-2v3h-2v3h-2l-1 4-8 6-10 3-23 3-31 2-22 1h-25l-17-2-7-1-2-2-33-5-29-2 8 16-1 2-8-6-5-3 1-4h3l-2-8-3-3v-2l-9-3-7-7-1-6-3-3h21l108-7z" fill="#282829"/>
<path transform="translate(1449,286)" d="m0 0h19l11 3 1 2h-20l-12 3-8 4-7 6-4 4-3 11h-9l-21-3h-113l-98 3h-143l-28 1-5 2-27 3-13 3-1 1-15 1v-3l15-9 18-10 13-6 26-7 7-1h30l43 6 31 3 15 1h25l57-3 87-3 71-1 21-3 9-3 18-3z" fill="#0E0D0D"/>
<path transform="translate(541,648)" d="m0 0h28l26 4 7 3-3 3-5 1 2 5 2 1 10 20 3 1 1 2v11l-4 12-12 26-6 10-6 9-3 2-2 5-7 8-6 3h-14l-8-4-9-11-3-7-2-12v-43l3-29 3-17 1-2z" fill="#0D0C0C"/>
<path transform="translate(1281,393)" d="m0 0h1l1 16 3 9 2 4v4l32 3 26 6 5 2 9 2h6v2h2l1 4 10 1 10-5 7-2-2 12-7 21-4 4h-23l-30-4v-2l-18-1-23-1h-55l-22-3-35-3-40-2-2-2 3-1 34-3 30-6 14-7 8-5 17-6 16-3 13-5 6-3 3-7-1-13 1-3h2z" fill="#0B0A0A"/>
<path transform="translate(609,861)" d="m0 0h30l29 1 79 1 92 2 36 1 216 2 28 1 1 5h-33l-1-1h-46l-24 2-7 2-13 1-15 2-17 2h-50l-40 1h-107l-20 1h-74l-14-2-13-4-3-3-10-2h-17l-6 3-5-1v-7l2-5z" fill="#989A9A"/>
<path transform="translate(622,991)" d="m0 0h5l1 2-6 3-2 3v7l3 6 6 5 13 4 22 3 25 2 67 2 91 1 55 1h71l61-2 51-2 43-2 32-1 37 1 20 1 48 5 22 2 15 1h32l16-1 19-3h6v1l-20 4-23 3h-50l-84-3h-48l-71 4-95 3-61 1h-27l-149-2-50-2-35-3-25-5-13-4-8-5-6-7-1-3v-9l4-6 5-4z" fill="#676A6B"/>
<path transform="translate(1590,445)" d="m0 0 4 2 2 2 1 11-3 5-3 4-2 1 1 12 3 4-4 3 1 2-18 5-39 6-54 7-10 1-2 8-7 2h-9l-10-5v-3l-6-2v-8l3-3 13-5 15-5 12-1v2l7-1 27-1 10-1 1-1 9-1h-52l-2-12-2-17v-7l1-3h19l20 1 11 3 13 1 10-1h13v-2l2-1 10-1 10 2 5-1z" fill="#0B0A0A"/>
<path transform="translate(856,903)" d="m0 0h77l16 2-4 6-9 16-9 13-8 6-10 5-21 7-11 3-47 7h-21l-9-2-5-1-3 1 2-4 12-15 7-11h2l1-4 3-6 11-7 11-6 9-4 8-4z" fill="#282829"/>
<path transform="translate(969,327)" d="m0 0h18l12 2 1 5-8 7h-2l-1 3-17 13-9 9-12 9-5 5-16 11-14 9-9 6-23 12-21 9-19 10-14 7-3 4-3 11-3 2h-10l-9-2-3-2 15-16 8-6 6-7 8-6 16-15 13-13 8-7 3-4 5-5 13-11 19-14 19-13 19-12 3 1 14-1z" fill="#FDFDFD"/>
<path transform="translate(627,990)" d="m0 0 6 2v2l-4 2-1 7 4 5 8 4 14 3 14 2 40 2 67-1h54l44 2 54 1h18l44-1 59-2 43-2 16-1 38-1h23l31 2 12 2 31 3 31 4 26 4 15 1h49v1l-13 2-16 1h-32l-29-2-46-5-30-2-45-1-51 2-39 2-30 1-61 2h-76l-54-1-90-1-62-2-35-3-15-3-10-3-8-7-2-5v-7l4-5 5-1z" fill="#454646"/>
<path transform="translate(1291,538)" d="m0 0h11l1 1v5l-7 3-28 5-22 3-10 2-66 9-26 3-57 7-39 3h-15l-4 2-12 1-18 1-1 1-44 1-14 1h-83l-108-2-32-2-3-2 2-2 10-1 51-1 47-2 70-2 46-2 19-2 103-5 127-7 45-6 26-5 25-6z" fill="#999B9B"/>
<path transform="translate(1411,600)" d="m0 0h13l9 2 11 7 15 14 8 13 2 5-1 4-2-3-2 2-1 5-20-8h-13l-10 4-4 2v2l-8 6-2 3h-2v2h-2l-2 4-5 7-8 14-9 8-3 1-11-1-9-1-4-6v-2h-3v-2h-4l-1-3 7-20 8-16 10-15 8-9 7-6h2v-2l11-6 9-4z" fill="#282829"/>
<path transform="translate(1011,735)" d="m0 0 19 1 19 3 23 6 14 6v2l14 7v2l4 1 11 8 5 3v2l5 2 28 20v2h2v2l6 2 5 4 14 6 8 2h23l27-2 24-4 12-4 6-5 3-6 4-2 4 7 6 3 3 3v15l-1 2h16l1-5h1v6l-3 2-52 2h-74l-16-5-9-6-7-4v-2l-5-2-22-16-12-8-11-8-16-11-13-4-14-2-19-3-26-2h-56l-2-1h-30v-13l9-2 27-2z" fill="#454646"/>
<path transform="translate(1490,925)" d="m0 0 3 3 3 1h17l19-1h34l11 1 14 4 28 5 18 2 22 1 32-2 20-2-3 2-24 6-27 7-19 3-25 3-53 4-29 4-27 6-21 6-9 3-9 2 1-6 7-8 9-20z" fill="#282829"/>
<path transform="translate(1245,469)" d="m0 0h65l37 4 13 2h54l6 1 1-3 4-1h7l1 3v12h-2v-2l-2-1v-2l-5-1-8 3-4 13-6 9h-2l-1 4h-2v3l-16 5-10 1v2l-38 8-22 4-4 1h14v2l-12 3-4-1v5l-3 2-4-1v-5l-17-1 4-2 15-4 14-4 10-3 3-3 3-6 8-7h2v-2l16-12 4-5 9-3-1-4-4-2-9 2-31 9-25 5-22 4-21 3-14-3v-2l8-3 17-4 11-2 3-1v-2l2-2-18-5-7-3h-14l-13-2h-15l-8 2-4-1 16-4z" fill="#797D7E"/>
<path transform="translate(1541,344)" d="m0 0h8l14 8 7 5 7 4 10 9 9 10 10 15 7 12 8 29 3 14 1 16 1 7-3 4-10 2h-6l-3-5-4-13-3-11-4-5-6-3v2l-4 1h-106v-4l36-3 67-1-6-7-15-37-10-27-8-21z" fill="#454646"/>
<path transform="translate(1133,509)" d="m0 0h9l2 4-7 6-16 8-13 9-5 4-4 2-1 2h12l27-3h15l24-2h20l10 2 21 2h19l24-3h5l-4 3-15 4-29 5-38 5-163 9-51 2h-11l1-2-7-1-62-1h-39l-60-1h-81v-1l63-2 62 1h22l34-1h65l25-2 16-2 50-5 14-3 12-7 22-14 20-12z" fill="#7C8081"/>
<path transform="translate(579,549)" d="m0 0h9l40 7 43 5 25 1h101l61 1h45l55 1 7 1 1 2-7 2-19 2-76 3-69 2-18 1-51 1-10 1-1 1 2 1 33 2 62 1 17 1v1h-46l-53-1-45-2-30-2 7 3v2h2l-2 4-3 2h-5l4-2-1-4-8-5-12-4-27-4-36-6-7-2 1-2 21 3 38 6 21-1 3-1 1-4h-2v-2l-14-1-50-8-8-2-1-3z" fill="#686B6C"/>
<path transform="translate(1668,532)" d="m0 0h8l1 2-4 4-21 2-17 6-6 4-12 2-6-2h-7l-9 3-5-1-4 2v-2h-4v9l1 1 8 1-2 4-17 3h-12l-20 4-5-1 1 7-16 2-15 3-8 2-17 6-11 3-5-1-4-4-2-13-4-4-2-1-2-5v-4l15-4 59-11 26-4 8-2 62-8 27-1z" fill="#282829"/>
<path transform="translate(1623,705)" d="m0 0 13 2 5 6-1 5-8 5-28 14-25 7-19 8-13 6-11 4-14 7-16 5-11 5h-8l-5-1-1-2v-6h2v-2l5-5 2-3h2v-2l14-11 10-7 17-9 21-9 19-7 21-6 12-3z" fill="#9A9C9C"/>
<path transform="translate(808,602)" d="m0 0h19l7 1v33l5-1 1-30 1-1h21l1 1v57l-5 2-1-24-14-1v2l3 1-2 19-4-2-1-3v-15l-5 1v-2h-2v17l-2 6-2 1h-8v-2l6-3 1-7-8-8h6l1-1-1-33h-8l-4 1-1 18 7 1 1 4-1 2-9 1 1 5v17l-5 1-1-4v-10h-29l-44-1-16-1h-53l-18 1 1-5 6-2h29l58 2 67 1-1-3-1-21-1 1h-52l-27-1-64-1 2-4 4-4 3-1h63l70 1 4 2v-6z" fill="#363637"/>
<path transform="translate(1301,550)" d="m0 0h4v7l-4 10-6 10-4 7-4 5-2 3-3-1-3-6-11-4-6-1h-31l-82 6-78 5h-7l-3-1-1-6 4-3 25-3 64-6 71-8 33-5z" fill="#FBFBFB"/>
<path transform="translate(1415,706)" d="m0 0 6 1 14 8 12 11 8 8 11 15 11 21v-28h1l1 23 3 15 4 11 9-1 12-5 12-3 22-7 11-3 13-4 11-3 32-9 11-3 25-8 13-4 9-1v-30h1v34l-5 5-9 7-13 5-17 6-20 4-9 4-13 5-11 5-15 4-27 11-14 5-4 2-12 1-4 3 1 9 4 23 2 3-3 10-3-1-3-21-10-40-2-12-5-2-16-32-9-13-6-7-10-8-15-10z" fill="#282829"/>
<path transform="translate(1424,480)" d="m0 0 6 2 1 5h2l1 5 10 2-2 1-1 4-5 3-1 8 7 2-1 3 10 4h9l7-1v-5h1v19l-5 2-9 3-16 12-12 10-7 4-7-1-7-6-4-5 1-9 3-6h2v-4h2l-2-15-2-1-10 1-13 4-33 8-14 6-16 11-1-3-3-1v-2l4-1v-2l6-1v-2l-6 1h-11l3-2 19-4 31-6 10-2h4v-2l21-5 5-1v-3h2l1-4 4-4 4-8 3-10 5-3z" fill="#454646"/>
<path transform="translate(1159,651)" d="m0 0h17v1l-49 3-14 2v1l6 1 21 1h10v3l16-4h76l12 3 6 8 4 9 5 26 3 22v26l-4 8-8 8-7 3-5 1h-29l-9-3-11-7v-2l-4-1v-2l-4-1-13-11-8-7-3-4v-2l9 3 18 10 6 4 9 8 7 9 5 1h8l7-1-3 3h-2v2l16-3 8-4h2l1-3 5-5 4-11v-21l-2-13-6-29-4-10-5-3-10-2h-29l-22 2-1 2-6 2-14 8-13 8-27 4h-15l-2-2 8-5 16-8 19-10 7-2 1-3-7 1-5 1-8 1-13-3-16-2-9-2-3-3 5-2 16-2z" fill="#424343"/>
<path transform="translate(1354,370)" d="m0 0h4l-1 4-13 30-7 16-4 7-1 3-11-1-7-1-24-1-2-1-4-11-2-6v-13l3-6 5-4 23-7 21-5z" fill="#66696A"/>
<path transform="translate(1188,650)" d="m0 0h56l13 2 5 1 7 10 3 7 5 21 4 33v29l-4 12-8 10-5 3h-2v2l-2 1-9 1h-38l-15-5-2-3 2-1v-2l8 1 3 1h30l14-2 8-4 7-7 3-7v-26l-5-34-4-17-6-11-4-3-10-2h-76l-12 3h-4v-3l-15 1-16-1-8-2 2-2 14-2z" fill="#0E0D0D"/>
<path transform="translate(1294,579)" d="m0 0 2 1v3h2l-1 6h-2v7l-4 8h-2v3h-2v3h-2l-1 4-8 6-10 3-6 1-53 3h-24l-1-1-33-1-3-2 25-1h54v-2l4-1 1-10-2-5-5-1-1 5-5 2h-4l-1 3h-3l-1-7-5-1v-3l2-3v-3l-3-2 3-3 27-2 49-2 2 4h2l4-6z" fill="#272728"/>
<path transform="translate(1711,562)" d="m0 0h3l14 42 11 41 6 26 1 7 1 17v112h-1l-1-28-1-49-2-24-2-33-4-14-4-11-2-7-5-6-4 2-6 9-5 5h-2v2h-2v2l-7 5-9-2-4-12h-3l-5 17-2 7-1-4 5-21 6-18 7-12 12-11 9-4 5-1-1-12-5-8-3-8v-7z" fill="#2C2C2D"/>
<path transform="translate(856,903)" d="m0 0h58l3 2-7 2-2 4h-2l-2 4-12 10-15 8-10 5-24 9-19 4-20 1 1-4 8-12h2l1-4 3-6 11-7 11-6 9-4 8-4z" fill="#444545"/>
<path transform="translate(1366,887)" d="m0 0h6l4 3 2 8v21l-3 21-11 22-3 4h-8l-6-5-6-7-7-11-6-12v-8l1-2h2l2-5 7-10 5-5 8-7 10-6z" fill="#0D0C0C"/>
<path transform="translate(1555,850)" d="m0 0h21l15 4 2 1 1-3 2 8v8h2l4 20 4 14-1 3-5-2-7-1-9-3-11-6-11-7-11-6-14-8-11-4-19-5h-6l-1 2v-4l19-5 11-2 7-1 2 1v-2l6-1z" fill="#282829"/>
<path transform="translate(1231,579)" d="m0 0h31l13 3 5 3-1 3-64 3-10 1-2 2 3 2-1 5-2 3 5 2 1 7 3-1 1-2 9-3v-5l7 2 2 5-2 10-2 1-15 1-6-3-1 2-9 1h-6l-2-1 1-9 4-6 4-5 3-3 1-6-67 3-13 2h-4v6h-11l-8 4-6-2-2-4-5 2-1 1-16 1-4 1 1-5 5-3 1-5h-7v-1l23-2 104-7z" fill="#454646"/>
<path transform="translate(1483,291)" d="m0 0 7 1 16 7 16 10 13 10 14 12 13 10 14 12 12 11 17 17 8 10 7 10 9 16 7 15 5 13v14l-4 13-6 6-19 5-16 3-4 1-2-4-1-1v-12l6-7 1-4v-10l3 3 3 13 3 9 2 4 9-1 7-1 2-3-2-23-5-21-6-22-10-17-9-12-9-10-8-7-12-7-13-8-2-1v-2l-5-2-6-9-5-4v-2h-2v-2l-4-2-6-7v-2l-5-2-11-5v-2l-4-1-11-6-7-4z" fill="#100F0F"/>
<path transform="translate(1386,743)" d="m0 0h21l7 3v2l4 2 4 5 2 4-1 25h-2l-2 6-4 4-4 8-2 9-8 12-6 7-3 4-2-11-2-3-4-27-3-22v-26z" fill="#0D0C0C"/>
<path transform="translate(1272,670)" d="m0 0 2 2 5 18 6 42 2 12 1 17v23l-4 11-7 8-17 5-9 1-24 1h-13l-11-2-6-4 1-7 4-5 18-6 32-4 10-2v-2l9-6 5-7 4-12v-29l-4-33-4-16z" fill="#999B9B"/>
<path transform="translate(605,866)" d="m0 0 1 2v7l6-1 4-2h17l10 2 3 3 17 5 10 1h74l22-1h110l48-1h39l16-2 14-2 19-2 1-1 24-2h37l-4 2-28 1-23 2-8 2-4 3-14 4-5 3-28 1h-99l-79-2h-99l-26-1-18-5-6-2-16-1-5 2-3 1-7-2-2-3 1-10z" fill="#696C6D"/>
<path transform="translate(1245,469)" d="m0 0h65l37 4 13 2 15 1-2 2-27 9-31 8-34 6-21 3-14-3v-2l8-3 17-4 11-2 3-1v-2l2-2-18-5-7-3h-14l-13-2h-15l-8 2-4-1 16-4z" fill="#676A6B"/>
<path transform="translate(1273,625)" d="m0 0 5 2 3 4-1 7-5 3-4 1-37 3-13 1v2l-4-1-4 1-6 1-67 1-10-2 3-3h3l2-4 3-3 14-5 17-3h17l5 2 6-1h3l12-2 18-2 20-1 12 1z" fill="#999B9B"/>
<path transform="translate(1009,665)" d="m0 0 1 2 3 1v2l40 1 3 1v2h-2v2h-7l-4 1-23 1-62-1-36-1h-121l-14 1-76-1-10-1-41-1-1-3h-2l1-4h12l47 2 28 1h120l17-1h62l65 2z" fill="#454646"/>
<path transform="translate(602,872)" d="m0 0h1l2 7 9 2 2-2 9-1 11 1 11 3 13 4 26 1h99l50 1 29 1h106l21-1 5-3 14-4 6-4 15-2 36-2h8l2-1h7l-1 3-15 1-18 1-11 2-4 1-1 3-6 3-3 3-12 4-10 1h-104l-82-1-59-2h-95l-20-2-9-2-6-1h-22l-3-3-1-3z" fill="#454646"/>
<path transform="translate(573,552)" d="m0 0 10 1 16 3 37 6 14 2v2h2l-1 5-3 1-21 1-50-8-9-1 11 3 42 7 16 2 16 6 6 5-1 4-4 1h-9l-52-7-27-5-5-1-1-4 7-14z" fill="#FCFCFC"/>
<path transform="translate(1384,875)" d="m0 0 3 1 2 9 12 10 2 41 3 24 2 9 3 6-1 4h-5l-3-5-4-32-3-36v-11h-2l-3-6-4-3v47l-4 18-4 9-7 12-5 5-7-1-11-8v-2l-3-1-5-7v-2h-2l-1-4-3-1-9-18-2-6v-6l8-11 9-8 7-9 4-12 9-3h11l5 3 7 1zm-18 12-10 5-8 6-6 7-4 4-7 10v2h-2l-1 2v8l8 16 7 10 5 5 5 4h8l4-5 5-11 5-10 3-21v-21l-3-9-3-2z" fill="#999B9B"/>
<path transform="translate(1188,687)" d="m0 0h10l7 1 6 2 8 5 7 6 1 2v15l-1 4-4 1-22 2-9 4h-16l-8-3-1-1v-6l11 1h22l-28-2-7-2-2-5v-10l4-7 5-3 7-3z" fill="#989A9A"/>
<path transform="translate(1382,740)" d="m0 0h24l10 3 13 10 6 9 1 3v15l-1 1-2 14h2l-1 3h-2l-1 4-11 14-10 12-4 5-3 5-5 6-2 4h-3l-2-3-1-10-5-6-3-12-2-16-3-19-2-14-2-7v-14l5-6zm4 3-5 2v26l6 43 2 7 2 6 1 7 3-4 9-11 6-10 2-10 5-8 3-3 1-4h2l1-25-5-8-3-3h-2v-2l-7-3z" fill="#F6F6F6"/>
<path transform="translate(672,805)" d="m0 0h38l122 1 37 1 81 1 48 1 30 1 2 1 16 1v1l-29 2h-52l-70-1-44-1-71-1-59-2-32 1-17-2-3-3z" fill="#3C3C3D"/>
<path transform="translate(757,474)" d="m0 0h17l-2 1v3h30l15-2 25-2h64l-2 2-25 1-14 2-14 4-25 2-21 4-28 3-15 3-13 3-9 1h-14v-8l-2-3v-3l9-4 18-5z" fill="#E1E2E2"/>
<path transform="translate(1110,693)" d="m0 0h1l1 8 6 10 9-1 13 5 5 1 16 8 11 10h-3l-2-1 6 8 14 12 5 4 3 1 1 2 3 1 3 3 12 7 5 1 20 1v1h-30l-11-3 1 3-2 1 9 4 7 2-4 1-12-4-15-8-13-10-11-9-10-8-14-10-13-12-8-10-3-7z" fill="#29292A"/>
<path transform="translate(746,730)" d="m0 0h1v11h-104l-6 1v2l85 2 3 1-1 5-88 1-9 4-8 7-3 1-2 4-8 11-13 18-7 11-10 13-5 1-16-4-4 1-12-3v2l10 2 21 6-1 5-29-4-3-1-1 4v-11l1-8 10 1 13 3h11l4-2 1-3 8-7 8-10 7-10 12-17 11-14 7-7h2l2-4 4-3 5-2 32-1 21-1h37l14-2z" fill="#444545"/>
<path transform="translate(747,726)" d="m0 0h1l1 31 1 23-1 1-8-1-7-2-2-6 1-10v-9l-89 1-6 2-5 3-9 6-9 10-28 40-1 2h-2l-2 4-5 5-4 6-4-1 1-4-11-2-20-6v-2l14 2 4-1 14 4 5-1 11-15 8-12 10-14 8-11 12-12 8-4 3-1h88l1-5-86-2-2-1v-2l6-2h55l49 1z" fill="#282829"/>
<path transform="translate(808,602)" d="m0 0h19l7 1v33l5-1 1-30 1-1h21l1 1v57l-5 2-1-24-14-1v2l3 1-2 19-4-2-1-3v-15l-5 1v-2h-2v17l-2 6-2 1h-8v-2l6-3 1-7-8-8h6l1-1-1-33h-8l-4 1-1 18 7 1 1 4-1 2h-11l-2 1v-33z" fill="#D2D3D3"/>
<path transform="translate(1695,940)" d="m0 0h5l-4 2-39 10-19 3-25 3-53 4-29 4-27 6-21 6-9 3-9 2 1-6 7-8 3-7 8 1 18-3 31-6 17-2 31-1h32l25-2 33-5z" fill="#676B6C"/>
<path transform="translate(663,590)" d="m0 0 1 3-5 6h-2l-2 4-9 10-7 8-7 11-4 11v12l5 10 7 8 11 7 19 9 25 7 15 2 36 2 7 1 52 1 21 1 6 1 37 1 10 1h15v-1l35-2 15-1v-3h2v-8l2-1v11l17-2 39-2h7l-4 2-11 2-28 3-11 3-25 1h-184l-9-2-26-3-25-4-17-6-19-8-10-6-8-6-2-5h-2l-5-11-1-3v-7l6-19 5-12 5-4h2v-2l10-8 3-3 1-6 7-1z" fill="#454646"/>
<path transform="translate(1452,796)" d="m0 0h8l3 5 1 8-9-1-10 5-9 8-7 9-4 5-4 9-3 3h-2l-2 8 6 5 23 11 10 3h4v-16l1-2 3 1 4 9 4 3 5 1v4l-3 3-3 10-2 2h-10l-12-5-16-8-18-11-3-2-1-3-10-4v-7l4 3v2h5l5 1 2-3v-6l-1-2v-7l10-13 5-7 8-7 10-9z" fill="#282829"/>
<path transform="translate(1681,941)" d="m0 0h7v1l-43 7-16 2-19 1h-39l-21 1-29 4-26 5-11 2h-5l-2-4 6-14h2v2l47-4 24-1 35 1 29 1 42-2z" fill="#444545"/>
<path transform="translate(1031,707)" d="m0 0h19l10 2 12 5 8 6 4 4v4l-10 2-23-1-13-1-27-1-14-2-4-2 1-7 3-2h3v-2l13-3z" fill="#9A9C9C"/>
<path transform="translate(1399,515)" d="m0 0h6l3 2-1 2-12 3-5 3-3 10-1 14-3 12-2 9-5 18-3 7-4 13-1 7-1 9-3 5h-2v2l-8 2-2 5-7 4-15 4-7 3 1 5 14 2h12v4l-1-2-17 1-15 3-5-1-1-5 4-6 9-6 10-3 9-4 5-3 4-5 9-3 2-11 2-13 1-1 2-12 3-6 4-15v-27l-2-6-9-1-8 1h-9l-3-3v-2l13-4 36-9z" fill="#7B7F80"/>
<path transform="translate(1715,710)" d="m0 0h1l-1 26-1 6-2 3 2 1 1 5 3-16 2-4h2l2 9-1 9-2 13 3 2v-2h2l1-7 4-2 1 6v10l-3 3v10h2v-8l2-1 2 6 2 9-1 6-5 1-3-3-1 9-4 5h-2l-1 3h-3l-1 3h-2l-1-6-5 1-1-4h-2l-3-3-1-7 6 5 2 3 9 2v-18h-4l-1 5h-2l-3-6-2-10v-29l4-22 4-12z" fill="#29292A"/>
<path transform="translate(685,826)" d="m0 0 32 1 4 1 78 1 36 2h105l102 1 21 1 22 4v1h-44l-30-2-27-1-150-1-27-1-158-2-13-1 1-3z" fill="#666868"/>
<path transform="translate(1390,862)" d="m0 0h5v4l5 2 5 4 3 3 16 11 12 9 11 9 5 7 1 9 2 8v16l-4 6-11 11-2 4-4 1h-4l-8 9-7 4h-5l-1-7h7l2-4 4-6 7-7 2-7 3-7 4 2 5 3 7-2-1-7-5-18-6-10-14-8-13-6-3-3-2-1-1-10-6-9-5-4v-2h-2v-2h-2z" fill="#282829"/>
<path transform="translate(1157,559)" d="m0 0h45l-4 2-49 6-70 7-19 3h-19l-9-1-2 2h-13l-2-3h2v-2l8-4h6l2 1v-2l2-1 54-4z" fill="#E2E3E3"/>
<path transform="translate(612,850)" d="m0 0 13 4 3 3 8 1 79 3 51 1 31 1v1h-50l-79-1-29-1h-30l-4 5-1 5h-2l1 11-2-1v-4l-7 1-17-6-29-9-9-2v-7l16 2 34 1h14l5-3z" fill="#29292A"/>
<path transform="translate(1481,328)" d="m0 0h20l8 3 8 6 10 15 8 17 9 24 7 22 4 13 1 6 2 1 20 1 1 2h-14l-19-1-4-16-14-41-8-19-9-16-7-7-6-3-4-1h-13l-10 4-5-1 5-5z" fill="#0B0A0A"/>
<path transform="translate(667,588)" d="m0 0h2l-1 4-4 4-6 11-6 6h-2l-1 2-5 4-7 10-6 10-1 3v12l5 10 6 7v2l5 2 21 10 8 4 19 5 30 3 23 1v-10l2-1v13h52l4-1v-8l2-1v10h20l2-4 5 2v2l26 1v-6l2 3v3l16-1 2-4 2-1 3-6h5l1 13 4-1h49v1l-15 2-34 2v1h-16l-11-1-36-1-8-1-19-1-52-1-7-1-36-2-20-3-20-6-23-11-10-8-7-9-3-7v-12l5-13 10-14 10-10 5-7h2l2-4 3-5z" fill="#282829"/>
<path transform="translate(875,383)" d="m0 0 2 1-10 10-8 7-16 16-8 7-10 8-5 6-9 7-9 10-11 6-4 2 1 1h9l1 1 17 2 6 1 16 1 1 2-8 1h-10l-2-2-20-2h-10l-12 3-6 2-20 3-5 1h-7l1-2 9-5 8-5 33-16 20-12 30-23 13-11 10-9 11-9z" fill="#111010"/>
<path transform="translate(1425,472)" d="m0 0h7l1 3v12h-2v-2l-2-1v-2l-5-1-8 3-4 13-6 9h-2l-1 4h-2v3l-16 5-10 2h-4l-1-8 8-5 6-3 10-10v-3l-7-2-2-6v-6l-4-1 9-1h24l6 1 1-3z" fill="#999B9B"/>
<path transform="translate(657,671)" d="m0 0h2l1 2 41 1 10 1 77 1 13-1h121l83 2h15l23-1 6-1 4 2-7 3h-263l-60-2-17-1-46-1z" fill="#29292A"/>
<path transform="translate(995,605)" d="m0 0h22l1 1 29 2 2 5h-23v2l-88 1h-47l-1-1v-5l18-1 58-2z" fill="#3D3E3E"/>
<path transform="translate(633,559)" d="m0 0 16 1 15 3 18 1 88 2 79 1 23 1-3 2-11 1-42 1h-113l-17-1-26-5-24-3-3-2z" fill="#454646"/>
<path transform="translate(1664,740)" d="m0 0h2v3l-41 14-37 11-27 9-40 12-20 7-11 3 1 14h-2l-6-22v-5l2 3 1 2 9-1 12-5 12-3 22-7 11-3 13-4 11-3 32-9 11-3 25-8 13-4z" fill="#454646"/>
<path transform="translate(862,867)" d="m0 0h123l35 1 5 1v1l-20 2-6 2h-60l-29-1-90-1-9-1v-3z" fill="#DBDCDC"/>
<path transform="translate(1555,850)" d="m0 0h21l15 4 2 1 1-3 2 8v8h2l4 20-1 4-5-13-20-7-12-5-13-3-8-3-9-3h-10l-11 1 2-2 15-3 7-1 2 1v-2l6-1z" fill="#454646"/>
<path transform="translate(1613,407)" d="m0 0 4 5 8 14 5 4 3 5 1 8 4 2v10l-6 17-4 5-3 2-4 2-25 5-4 1-2-4-1-1v-12l6-7 1-4v-10l3 3 3 13 3 9 2 4 9-1 7-1 2-3-2-23-5-21-5-19z" fill="#282829"/>
<path transform="translate(1175,594)" d="m0 0h15v7l-2 6-4 2h-8l-4 2-3 6-10-2-2-1h-15l-4-5-3-1-2 7-4 3-11-1-6-4v-3l15-5 3-2h3l1 3h2l-1-6 5-2z" fill="#0B0A0A"/>
<path transform="translate(651,711)" d="m0 0 18 2 27 4 19 1 11 1h21v6l-21-1h-56l-24 2-12 4-8-1-5-5 2-6 7-5z" fill="#9A9C9C"/>
<path transform="translate(1618,703)" d="m0 0h18l9 4 3 4v6l-5 5-17 9-14 7-9 3-22 5-5 3-16 6-17 8-23 9-15 5-13 5h-7l-3-3 2-2 3 1h8l16-7 13-4 16-8 11-4 14-6 17-7 24-7 24-12 9-5 1-5-4-5-13-2-17 1-16 4-22 7-21 8-9 4-19 9-13 9-11 9-3 1v2l-5 5-2 3h-2v2h-2l-1 3v-6l6-4 7-8 11-9 3-1v-2l17-10 19-9 19-7 22-7 19-5z" fill="#7C8081"/>
<path transform="translate(1222,558)" d="m0 0h5v3l-13 3 2 2-72 8-74 7-8 2-1 4v3l3 1-14-1-3-4v-2h-6l-2-3-7-1v2l-10 2h-24l1-2 18-1 12-1 4-2h15l39-3 71-9 27-3z" fill="#6C6F6F"/>
<path transform="translate(1270,540)" d="m0 0h5l-4 3-15 4-29 5-38 5-56 3h-15l4-4 13-2 18-6 5-1h24l9 1h10l29-4 27-2z" fill="#676A6B"/>
<path transform="translate(567,582)" d="m0 0 7 2 7 8 2 3 1 8 8 2 1-7 4 2 2 5v3l7 1v2l7 1 2 4-5 4h-32l-13-3-3-3 1-18 2-8h2z" fill="#454646"/>
<path transform="translate(582,689)" d="m0 0h8l10 5 2 2-1 10-3 5-4 7-2 7-5 12-11 17-7 9h-2v2l-9 2-8-2v-2h9l8-7 8-11 6-11 6-10 2-4h2l2-5-16-1-5-4-2-5v-12l7-3z" fill="#989A9A"/>
<path transform="translate(1294,579)" d="m0 0 2 1v3h2l-1 6h-2v7l-4 8h-2v3h-2v3h-2l-1 4-8 6-10 3-6 1-53 3h-24l-1-1-33-1-3-2 25-1h34l20-1 5-2h25l3-3h2l2-4 12-6 3-7 4-5 2 3 4-2 2-4h-2l1-5z" fill="#0D0C0C"/>
<path transform="translate(573,552)" d="m0 0 10 1 16 3 37 6 14 2v2h2l-1 5-3 1-21 1-50-8-9-1 11 3 42 7 9 1v1h-10l-47-8-8-2 4-8z" fill="#F8F8F8"/>
<path transform="translate(819,808)" d="m0 0h12l16 1 38 1h5l-9-1v-1h69l48 1 30 1 2 1 16 1v1l-29 2h-52l-70-1-40-2-35-1z" fill="#3E3F3F"/>
<path transform="translate(1278,618)" d="m0 0h2l2 5 5 3 13 3h13l3 1-2 5-2 4-14 5-22 3-21 1v3h-11l-1-1-22-2v-2l6-1 31-3 13-1 8-3 1-7-3-4-4-1-8 2-12-1 2-2 10-2 8-3z" fill="#7B7F80"/>
<path transform="translate(811,849)" d="m0 0h112l33 1 145 1 15 3-1 2h-64l-57-2-16-1-94-1h-72z" fill="#3B3C3C"/>
<path transform="translate(1266,697)" d="m0 0 2 1 4 29v26l-4 8-8 8-7 3-5 1h-29l-9-3-11-7v-2l-4-1v-2l-4-1-13-11-8-7-3-4v-2l9 3 18 10 6 4 9 8 7 9 5 1h8l7-1-3 3h-2v2l16-3 8-4h2l1-3 5-5 4-11v-21l-1-10z" fill="#919494"/>
<path transform="translate(561,602)" d="m0 0h1l-1 11-3 6h-4l2 7 5 1 21 5 9 4 4 5v4l-2 1-16-1-6-3-12-1-3-1v2h2v2l-2 1-11 1-5 1-2-1 2-9 7-22 6-3 3 3 3-7z" fill="#999B9B"/>
<path transform="translate(1561,353)" d="m0 0 8 3 11 7 12 12 11 15 1 5-7 1-2 2h-5l-11-8-1-3-4-2-7-7-6-8-1-3v-10z" fill="#66696A"/>
<path transform="translate(808,635)" d="m0 0 6 1-4 1 1 5v17l-5 1-1-4v-10h-29l-44-1-16-1h-53l-18 1 1-5 6-2h29l58 2 67 1 1-5z" fill="#646768"/>
<path transform="translate(1080,546)" d="m0 0 5 2 6 2 15 2v2l-9 2v5l-1 1-70 4h-32l3-2 12-2 28-3 17-3 13-5 9-4z" fill="#676A6B"/>
<path transform="translate(1231,579)" d="m0 0h31l13 3v1l-9 1-7-2-12-1 1 3-2 2-28 2h-35l-4-1-46 3-22 2h-14l-26-1v-1l108-7z" fill="#6C6F70"/>
<path transform="translate(1201,697)" d="m0 0h14l7 4 1 6-2 7-13 2-13 1h-14l-5-1-1-4-3-1 1-6 4-2 8-1 6-4z" fill="#E2E3E3"/>
<path transform="translate(1705,815)" d="m0 0 4 2 4 8 5 3 6 10 4 12 3 5v2l3 1 1 10-4-5-2-6h-2l-3-5-3-9h-2l-2-6h-2v2h-2l2 8 1 12-1 15-7 9-6-1-1-5h-2l1-14 3-4 4-22 3-1-2-12-3-6z" fill="#414242"/>
<path transform="translate(919,474)" d="m0 0h93l58 1 68 2 6 1-1 2h-28l-53-1h-120l-18-2-5-2z" fill="#E2E3E3"/>
<path transform="translate(996,639)" d="m0 0h74l-1 4-59 1-15 1h-105l1-4 73-1z" fill="#686B6C"/>
<path transform="translate(860,904)" d="m0 0h20l-3 5-6 5-15 8-21 9-7 2-12 4-2 1 2-6 3-6 11-7 11-6 9-4z" fill="#676B6C"/>
<path transform="translate(1159,651)" d="m0 0h17v1l-49 3-14 2v1l6 1 21 1h10v3l16-4h15l5 1-5 4-12 6-8 3-7 5-6 2-10 5-13 4h-3v-3l32-17 7-2 1-3-7 1-5 1-8 1-13-3-16-2-9-2-3-3 5-2 16-2z" fill="#454646"/>
<path transform="translate(1711,562)" d="m0 0h3l14 42 4 14v3l-3 1-2-2-7-2-5-1-4-4-5-1v2h-3l-1 3-4 4-6 3-10 20-1-2 6-17 6-10 12-11 9-4 5-1-1-12-5-8-3-8v-7z" fill="#474849"/>
<path transform="translate(1730,753)" d="m0 0h1l1 6v10l-3 3v10h2v-8l2-1 2 6 2 9-1 6-5 1-3-3-1 9-4 5h-2l-1 3h-3l-1 3h-2l-1-6-5 1-1-4h-2l-3-3-1-7 6 5 2 3 9 2v-18l-3-1 1-9 1-1 1-12 7 3 2-10z" fill="#6A6D6E"/>
<path transform="translate(1057,310)" d="m0 0h12v2h14l4 2h18l29-1 12 1 6 3v1l-110 1-28 1-5 2-21 2 2-2 22-4 8-2 18-1h-17l3-2 13-2z" fill="#2A2A2B"/>
<path transform="translate(865,736)" d="m0 0h2l1 9 6 1 12-1 3-6 5 1v12l-6 5-4 1h-16v-3l-2 2-5-1v-14l-4 2-2 5 3-1-2 4v2l3-2-2 6h-8l-4-7v-9l2-4h13z" fill="#DDDEDE"/>
<path transform="translate(1452,796)" d="m0 0h8l3 5 1 8-9-1-10 5-9 8-7 9-4 5-4 9-5 4h-3l-2-4v-7l10-13 5-7 8-7 10-9z" fill="#F0F1F1"/>
<path transform="translate(636,752)" d="m0 0h86v1l-78 1-6 2-5 3-9 6-9 10-28 40-1 2h-2l-2 4-5 5-4 6-4-1 1-4-11-2-20-6v-2l14 2 4-1 14 4 5-1 11-15 8-12 10-14 8-11 12-12 8-4z" fill="#29292A"/>
<path transform="translate(679,609)" d="m0 0h49l65 1 9 2 1 4h-39l-41-2h-41l-7 1h-9v-2l7-3z" fill="#676A6B"/>
<path transform="translate(1363,795)" d="m0 0h2l6 11 4 18 3 7 2 16 1 2v6l-3 4h-2v-2l-16 3h-4l-1 2v-6l6-5 11-1-7-28-2-11z" fill="#949696"/>
<path transform="translate(1201,595)" d="m0 0 5 1-1 5-2 3 5 2 1 7 3-1 1-2 9-3v-5l7 2 2 5-2 10-2 1-15 1-6-3-1 2-9 1h-6l-2-1 1-9 4-6 4-5 3-3z" fill="#444545"/>
<path transform="translate(1059,704)" d="m0 0 13 1 11 6 8 7 5 8 1 5-2 3h-16l-22-3-22-2-24-1 2-2 29 1 27 2 15-1-2-5-8-7-11-5-5-2-8-1h-18l-1-2 14-1z" fill="#7C8081"/>
<path transform="translate(817,609)" d="m0 0h8l1 1 1 33-2 2h-5l6 4 2 3-1 7-4 2-5-1-4-6v-2h-2v-6l4-2-1-2-3-1 1-3 5-2 1-5-7-2v-14l1-4z" fill="#0C0B0B"/>
<path transform="translate(808,602)" d="m0 0h19l7 1-1 34h-7l-1-27h-8l-4 1-1 18 7 1 1 4-1 2h-11l-2 1v-33z" fill="#D5D6D6"/>
<path transform="translate(1267,471)" d="m0 0 9 1 9 3 9 4 11 2 1 3h-2v2l-9 3-28 7-7 4-2 2 2 1h-7l-7-2v-2l8-3 17-4 11-2 3-1v-2l2-2-18-5-7-3h-14l-13-2h-15l-8 2-4-1 10-3 24-1h12l7 1z" fill="#7B7F80"/>
<path transform="translate(1126,320)" d="m0 0h7l-1 4-4 5h-2l-1 3-5 5-9 10-1 2h-2l-2 5-3 4 1 8 1 6v5l-4 6-11 7-11 8-4 5-6 4h-6l-5-5-1-2-4 1-11 6-9 7h-2v2l-14 11h-2v2l-12 9-6 2 4-5 11-7 6-5h2v-2h2l1-3 16-12 14-8 5-1 3 4h8l6-5 5-5 12-8 5-3 4-5-1-10-1-7 4-7 7-8 3-4h2l2-5 8-9z" fill="#7C8081"/>
<path transform="translate(912,671)" d="m0 0h57l80 1 4 1v3h-91l-66-2-2-2z" fill="#676A6B"/>
<path transform="translate(1435,289)" d="m0 0 2 1-6 8-8 16-18-1 1-6 3-8h-89v-1l71-1 21-3 9-3z" fill="#57595A"/>
<path transform="translate(686,843)" d="m0 0h12l15 1 5 1h31l25 2 51 1v1l-13 1v2h-59l-19-2-49-2v-4z" fill="#2B2B2C"/>
<path transform="translate(1200,681)" d="m0 0h17l7 1 6 5-3 6-1 6-2 1-7-6-6-3-7-2-12-1-14 1-12 6-3 6-1 8h-1l-3-10 2-6 4-3 5-2 4-3 7-2z" fill="#282829"/>
<path transform="translate(1133,509)" d="m0 0h9l2 4-7 6-13 6-8 3-15 9-15 7-5-1 4-6 21-13 20-12z" fill="#686B6C"/>
<path transform="translate(862,601)" d="m0 0h27l-1 5-5 3h-2l-2 7v44l-1 4-5-1-1-26-2-23-2-6-2-1v-4l-4-1z" fill="#979999"/>
<path transform="translate(685,826)" d="m0 0 32 1 4 1 78 1v1l-15 1v1h-65l-70-1-13-1 1-3z" fill="#333334"/>
<path transform="translate(1430,799)" d="m0 0 1 3-11 14-10 12-4 5-3 5-5 6-2 4h-3l-2-3 1-10 4-8 7-8 5-5 5-6 12-4z" fill="#F6F6F6"/>
<path transform="translate(1379,746)" d="m0 0h1l2 25 6 43 2 7 2 6 1 8-1 6h-1l-2-7-4-5-3-12-2-16-3-19-2-14-2-7v-12l3-2 1 2z" fill="#E7E8E8"/>
<path transform="translate(1291,538)" d="m0 0h11l1 1v5l-7 3-28 5-22 3-2 1h-13l3-2 10-2v-2l23-7z" fill="#E0E1E1"/>
<path transform="translate(947,690)" d="m0 0h1v11l17-2 39-2h7l-4 2-11 2-28 3-11 3-25 1h-38v-3l35-2 15-1v-3h2v-8z" fill="#464748"/>
<path transform="translate(1076,614)" d="m0 0h23l33 7 1-4 3 1 2 3 5 3 39 1 1 1h24l33-2h13v1l-22 2-41 2h-25l-17-2-7-1-2-2-33-5-29-2 8 16-1 2-8-6-5-3 1-4h3v-7z" fill="#454646"/>
<path transform="translate(991,607)" d="m0 0h16v3l-15 2-31 2-57 2h-13v-4l2-1 65-2z" fill="#676A6B"/>
<path transform="translate(1349,891)" d="m0 0 1 2h3v2l-8 7-3 4h-2l-2 5-6 8-1 2h-2v10l8 16 7 10 5 8 9 2v5h3l2-4 4-4 6-13 2-5h1l-1 7-4 10-4 6-7 6-5-2-7-5v-2l-3-1-5-7v-2h-2l-1-4-3-1-9-18-2-6v-6l8-11 9-8 8-10z" fill="#E1E2E2"/>
<path transform="translate(803,737)" d="m0 0h5l1 5-1 1v15l-1 1h-8l-1-1v-10l2-3-5 3-5 10h-6l-2-1-1-3v-12l2-3 3-1z" fill="#EAEBEB"/>
<path transform="translate(1415,706)" d="m0 0 6 1 14 8 12 11 8 8 11 15 11 21v-28h1l1 23 3 15 1 6h-2l-2-5-4-1-16-32-9-13-6-7-10-8-15-10z" fill="#29292A"/>
<path transform="translate(1427,767)" d="m0 0 4 1 1 4-2 27-5 6-10 3h-2l-2 4-5 4 2-5 3-12 6-9h2l2-6h2v-15h1l1 7z" fill="#DFE0E0"/>
<path transform="translate(1250,749)" d="m0 0h1v7l-2 4 9-2 3-1 1 3-8 7-10 4-13 1v-2l3-2-6 1h-9l-3-2 10-1-6-9 1-2h24l3-2z" fill="#696C6D"/>
<path transform="translate(875,383)" d="m0 0 2 1-10 10-8 7-16 16-8 7-10 8-5 6-9 7-9 10-1-4-6 1 2-6-2-1 14-8 30-23 13-11 10-9 11-9z" fill="#323333"/>
<path transform="translate(667,588)" d="m0 0h2l-1 4-4 4-6 11-6 6h-2l-1 2-5 4-7 10-6 10-1 3v12l5 10 6 7v2l5 2 21 10 8 4 19 5 30 3 4 2h-18l-20-3-20-6-23-11-10-8-7-9-3-7v-12l5-13 10-14 10-10 5-7h2l2-4 3-5z" fill="#282829"/>
<path transform="translate(1413,495)" d="m0 0 1 2-2 8-5 10-12 2-13 4-33 8-14 6-16 11-1-3-3-1v-2l4-1v-2l6-1v-2l-6 1h-11l3-2 19-4 31-6 10-2h4v-2l21-5 5-1v-3h2l1-4 4-4 4-6z" fill="#424343"/>
<path transform="translate(1188,687)" d="m0 0h10l7 1 6 2 7 4-2 1-8-1h-10l-6 1h-8v2l-5 3-9 1-2 2-1 6 1 3-1 2 3 1v1h-6l-2-5v-10l4-7 5-3 7-3z" fill="#464747"/>
<path transform="translate(1211,785)" d="m0 0h17v1l-12 2-14 5-4 6-1 5 5 2 6 2 6 1h14l1 2h-25l-16-5-7-6v-5l11-7z" fill="#7C8081"/>
<path transform="translate(568,599)" d="m0 0 7 3 4 3 10 3h7l2 4-1 5-2 1h-19l-11-3-2-4v-8l1-3z" fill="#282829"/>
<path transform="translate(547,659)" d="m0 0h30l8 4 9 7 8 11 2 3v3h-8l-6-8-5-5-9-8-8-2-28-1 1-3z" fill="#939595"/>
<path transform="translate(1393,890)" d="m0 0 4 2 4 3 2 41 3 24 2 9 3 6-1 4h-5l-3-5-4-32-1-11v-25l1-5-2-6v-2h-2z" fill="#ADAFAF"/>
<path transform="translate(1384,875)" d="m0 0 3 1 2 9 5 5v3h2l3 8-2 18h-1l-1-13v-11h-2l-3-6-4-3v10l-1-2h-2v-8l-1-2h-9l1 4h-8l-10 5-4 1-3-1-1-3 3-9 9-3h11l5 3 7 1z" fill="#979999"/>
<path transform="translate(1270,833)" d="m0 0h20l1 2-44 4-42 2-14-1-3-2v-2l3-1h23z" fill="#454646"/>
<path transform="translate(1010,638)" d="m0 0h61l1 3 5 1 1 4h-41l-12 1-7-2-6 1h-123l-3-3v-2h5l-1 4 105-1 15-1h59l1-4h-60z" fill="#404141"/>
<path transform="translate(811,849)" d="m0 0h112l33 1 18 1v1h-162z" fill="#6E7071"/>
<path transform="translate(1390,862)" d="m0 0h5v4l5 2 5 4 3 3 6 4 7 8 7 6v3h5l7 7 1 4-4-2v-2l-11-3-11-5-7-3-2-1-1-10-6-9-5-4v-2h-2v-2h-2z" fill="#676A6B"/>
<path transform="translate(812,741)" d="m0 0 5 1 3 1 1 3 1-3 5-2 4 1 7 3 4 7v6h-7l-6-9v-3h-2v10l-2 2h-10l-3-3-2-4v-8z" fill="#F2F3F3"/>
<path transform="translate(1524,439)" d="m0 0h47l12 1-1 4h-86l-1-2 3-1z" fill="#999B9B"/>
<path transform="translate(808,635)" d="m0 0 6 1-4 1 1 5v17l-5 1-1-4 1-11h-22l-65-2-7-1v-1h14l9 1v-2l71 1 1-5z" fill="#676A6B"/>
<path transform="translate(771,830)" d="m0 0h50l14 1h105l18 1v1l-67 1h-57l-50-2-13-1z" fill="#9A9C9C"/>
<path transform="translate(597,709)" d="m0 0 1 2-4 7-2 7-5 12-11 17-7 9h-2v2l-9 2-8-2v-2h9l8-7 8-11 6-11 6-10 2-4h2l2-5-16-1-1-2h10l10-2z" fill="#8D8F8F"/>
<path transform="translate(1167,733)" d="m0 0 9 3 18 10 6 4 8 7-1 4-1 2-6 1-1-3-4-1v-2l-4-1-13-11-8-7-3-4z" fill="#D8DADA"/>
<path transform="translate(1555,850)" d="m0 0h21l15 4 2 1 1-3 3 16-1 4-3-7-19-6-25-5-6-2 2-1z" fill="#676A6B"/>
<path transform="translate(1463,804)" d="m0 0 2 1 5 11v6l-7 3-5-1-2-5-8-1-10 5-9 9-5 7-1-2 4-6 7-8 5-5 9-8 7-3 8 1z" fill="#444545"/>
<path transform="translate(657,668)" d="m0 0 14 1 43 2 35 1 16 1-1 2h-63l-41-1-1-3h-2z" fill="#66696A"/>
<path transform="translate(531,742)" d="m0 0 1 2 5 2 6 6 3 5 4 4h12l-3 3-9-1v2l12 1-1 2-9 1 6 3 3-1 1-3 9 1 6-5-2 4-6 5-3 1h-14l-8-4-9-11-3-7z" fill="#282829"/>
<path transform="translate(843,639)" d="m0 0h14l1 4v21l4-1-1 2h-19l-1-5 3 1 1-19-2-1z" fill="#0C0C0C"/>
<path transform="translate(839,635)" d="m0 0 1 2h20l-1 5-2-2-14-1v2l3 1-2 19-4-2-1-3v-15l-5 1v-2h-2v17l-2 6-2 1h-8v-2l6-3 1-7-8-8h6l2-7 10-1z" fill="#38393A"/>
<path transform="translate(568,563)" d="m0 0 21 3 38 6 21-1 3-1 1-4-2-1 8 1 9 5v3l-8 1h-11l-5-1v2l4 1 1 3-18-4-27-4-29-5-7-2z" fill="#9A9C9C"/>
<path transform="translate(1223,717)" d="m0 0 4 1-1 4-4 1-22 2-9 4h-16l-8-3-1-1v-6l11 1h27v-1z" fill="#3E3F3F"/>
<path transform="translate(1414,880)" d="m0 0 4 2 14 10 5 6 5 4 6 10 5 12v15l-4-2-5-18-6-10-14-8-13-6 4-1 13 6 9 3 3 3-3-5-4-4h-5l-2-5-12-11z" fill="#404141"/>
<path transform="translate(1079,577)" d="m0 0h9l-3 2-21 3-3 2v6l3 1-14-1-3-4v-2h-6l-2-3-7-1v2l-10 2h-24l1-2 18-1 12-1 4-2h15z" fill="#2A2B2B"/>
<path transform="translate(791,462)" d="m0 0h8l18 4 22 1 7-2 2-1h6l6 2v2l-5 1h-7l-6 3-10 2-18 1-14 3h-16l-7-1 3-2h12l15-2 3-3v-1h8l3 2h9l7-1-16-1-12-2-11-1-7-2z" fill="#2E2E2F"/>
<path transform="translate(1166,461)" d="m0 0h11l44 4 13 2h55l23 1 18 2v1l-20-1h-65l-16 2-9-1-5-3-15-2-34-3z" fill="#2E2F2F"/>
<path transform="translate(638,710)" d="m0 0h35l14 3 20 3 26 2h13l1-2-1 4h-24l-7-1-28-2-26-4-10-1-21 2-5 4h-2l-1 6 4 4 13 1-3 2h-11l-5-2-1-10h2l1-3 6-4z" fill="#7C8081"/>
<path transform="translate(682,613)" d="m0 0h41l41 2 39 1 1-2-1 4h-52l-27-1-50-1 1-2z" fill="#39393A"/>
<path transform="translate(697,498)" d="m0 0 2 2 1 5-4 6-9 9-12 19-6 5 1-5 6-16 7-11 11-12z" fill="#686B6C"/>
<path transform="translate(1249,547)" d="m0 0 4 1-9 2v2l-4 2-6 1 2 2-28 4h-7v-1h-16l-12-1 2-2 31-3 34-5z" fill="#9EA0A0"/>
<path transform="translate(655,499)" d="m0 0 4 1 4 2h8l7-2-2 9-7 9-4 2h-5l-2-4 1-6-7-4h-4l-1-4z" fill="#E0E1E1"/>
<path transform="translate(1176,659)" d="m0 0 10 1-5 4-12 6-8 3-7 5-6 2-10 5-13 4h-3v-3l32-17 16-4 9-3v-2z" fill="#2B2B2C"/>
<path transform="translate(848,600)" d="m0 0h40v1l-25 1-1 2-21 1-1 30-4 2h-3v-29l2-4 1 2 1-3 8-2z" fill="#181818"/>
<path transform="translate(1436,765)" d="m0 0 6 4 11 14-1 5-9 2-8 6-2-1 1-14 1-1z" fill="#2F3030"/>
<path transform="translate(1136,564)" d="m0 0h20l-4 2-13 2-41 4-31 1 4-3 18-3 21-1z" fill="#F9F9F9"/>
<path transform="translate(560,577)" d="m0 0 1 3h4v2h-2v2h2l-2 11v11l-2-2-4 12-5-3-4 2 2-10 9-27z" fill="#686A6B"/>
<path transform="translate(1449,286)" d="m0 0h19l11 3 1 2h-20l-12 3-8 4-7 6-6 5-1-2 6-12 5-6z" fill="#121212"/>
<path transform="translate(1721,888)" d="m0 0 5 2 1 3 5 1 3 7v7l-7 2-6 3-2-4h-2l-1-10 3-10z" fill="#2C2C2D"/>
<path transform="translate(1008,640)" d="m0 0h10l-2 2-27 2-28 1h-70l3-2h12v-1l68-1z" fill="#9A9C9C"/>
<path transform="translate(573,683)" d="m0 0 14 1 5 3 2 4-4-1h-8l-11 3v12l3 6 3 2 15 1 2 1-3 3h-3l-5 3-6-1-5-3-2-6h-2l-1-6 2-18z" fill="#282929"/>
<path transform="translate(612,860)" d="m0 0h78l25 1 51 1 31 1v1h-50l-79-1-56-2z" fill="#444546"/>
<path transform="translate(817,609)" d="m0 0h8l1 1v21l-1 2h-5l-3-3-5-1v-14l1-4z" fill="#111010"/>
<path transform="translate(1376,883)" d="m0 0h6l2 3-1 8h2v23l-4 1-3 12h-1v-32l-3-9-1-5z" fill="#DEDFDF"/>
<path transform="translate(590,635)" d="m0 0 6 1 13 6 3 2-2 5h-10l-23-2-16-1-5-1 2-1v-2h-2v-2l15 1 6 3 18 1-3-7z" fill="#7C8081"/>
<path transform="translate(1249,661)" d="m0 0 5 1 6 8 4 9 3 14-1 19h-1l-6-29-4-10-5-3-10-2-23-1v-1h26l6 1v-2l-2-1z" fill="#3B3B3C"/>
<path transform="translate(1179,583)" d="m0 0h11v1l-30 3v1l-49 4h-14l-26-1v-1z" fill="#858888"/>
<path transform="translate(672,805)" d="m0 0h38l17 1 2 2 16 1v1h-33l-12 1h-11l-17-2-3-3z" fill="#282829"/>
<path transform="translate(727,806)" d="m0 0h27l38 2 11-1 1 1 14 1v1l-9 1h-51l-29-2-8-1v-1z" fill="#434444"/>
<path transform="translate(1513,438)" d="m0 0h52v1l-41 1-26 2-2 1 85 1v1h-104v-4z" fill="#686B6C"/>
<path transform="translate(1433,475)" d="m0 0 4 4v2l6-2 11-2h5l2 9-8 3-6 1h-9l-1-5-4-1z" fill="#0B0A0A"/>
<path transform="translate(1715,710)" d="m0 0h1l-1 21-3 5-3 21 1 13-1 7h2l1-2 1 1v11l-3-4-4-7v-31l4-22 4-12z" fill="#464747"/>
<path transform="translate(1435,289)" d="m0 0 2 1-6 8-8 16-6-1v-2h2l-1-3v-16z" fill="#989A9A"/>
<path transform="translate(1198,560)" d="m0 0h3v2l-31 4-26 3-57 7-10 1h-11l2-2 11-2 70-7z" fill="#9A9C9C"/>
<path transform="translate(686,843)" d="m0 0h12l15 1 5 1h31v1l-11 1v1l14 2v1h-11l-7-1-49-2v-4z" fill="#282829"/>
<path transform="translate(1448,817)" d="m0 0h5l5 5v2l8-1 4-1 1-3 2 6 1 18-4-1-3-7-5 1-8-14-2-2h-6l-6 2 3-3z" fill="#282829"/>
<path transform="translate(1496,446)" d="m0 0h78v1l-11 1v2l-14 1-10 1-13-1-10-3-20-1z" fill="#282829"/>
<path transform="translate(1244,555)" d="m0 0h10l2 1h6v3l-16 3-22 3h-15v-1l17-4 3-3z" fill="#515252"/>
<path transform="translate(537,818)" d="m0 0 16 4 17 5-1 5-29-4-3-1-1 4v-11z" fill="#6B6E6F"/>
<path transform="translate(877,615)" d="m0 0h1l1 28v17l-1 4-5-1-1-26v-21h1l1 17h2l-1-3z" fill="#DCDDDD"/>
<path transform="translate(1715,850)" d="m0 0 2 3-1 28-2 8-5-1-1 3h-2l3 5 1 4v7h-3l-2-8-1-5-2-1-2-6v-10l2 3v2h6l6-8z" fill="#282829"/>
<path transform="translate(964,571)" d="m0 0h23l-1 3-6 4h-31v-4l6-2z" fill="#E2E3E3"/>
<path transform="translate(708,828)" d="m0 0 91 1v1l-15 1v1h-65l-10-2z" fill="#4E5050"/>
<path transform="translate(865,670)" d="m0 0h17l1 2-12 1h-80l-38-1v-1z" fill="#282829"/>
<path transform="translate(847,738)" d="m0 0h10l2 4-3 5-1 2 3-1-2 4v2l3-2-2 6h-8l-4-7v-9z" fill="#EFF0F0"/>
<path transform="translate(1461,799)" d="m0 0 2 2 1 8-9-1-10 5-9 8-7 9-4 5-3 7-1-2 3-8 8-10-3-1 2-4 9-8 8-3 11-2z" fill="#DFE0E0"/>
<path transform="translate(1208,758)" d="m0 0 5 5 3 4 5 1h8l7-1-3 3h-2v2l16-3 6 1v2l-5 1h-29l-9-3-8-5 1-2h3z" fill="#999B9B"/>
<path transform="translate(1375,826)" d="m0 0 2 1 3 20 1 2v6l-3 4h-2v-2l-16 3h-4l-1 2v-6l6-5 11-1 5 3 2 1v-4l-2-1-1-14z" fill="#646667"/>
<path transform="translate(569,648)" d="m0 0h9l31 4 6 2-1 6-4 2-15 2-2-5 7-3 1-1-11-3-21-3z" fill="#444545"/>
<path transform="translate(1250,749)" d="m0 0h1v7l-2 4 9-2 3-1 1 3-5 4h-6l-1-1-7-1-5-1-4 1-10-1-4-4 1-2h24l3-2z" fill="#404141"/>
<path transform="translate(653,580)" d="m0 0 20 1 33 2 24 1 53 1v1h-62l-57-2v2h-2v-2l-5-1z" fill="#3B3C3C"/>
<path transform="translate(1732,773)" d="m0 0 2 4 3 11-1 6-5 1-1-2-3-1-1 6-3 6h-4l1-8 3-7h4l2-7h2v-8z" fill="#959798"/>
<path transform="translate(1429,446)" d="m0 0 5 1-3 19v5h-6v2l-8 1v-3l3-3 4-10z" fill="#0B0A0A"/>
<path transform="translate(636,746)" d="m0 0h34l39 2 3 2h-37l-41-1z" fill="#676A6B"/>
<path transform="translate(1379,746)" d="m0 0h1l2 25v12l-1-4-4-1-2-10-2-7v-12l3-2 1 2z" fill="#F5F6F6"/>
<path transform="translate(889,739)" d="m0 0 5 1v12l-6 5-4 1h-16v-4l4-1-2 4h10l2-10h-6v-1l10-1z" fill="#979999"/>
<path transform="translate(658,667)" d="m0 0h12l47 2 28 1 20 2v1h-16l-60-2-18-1-13-2z" fill="#3A3B3B"/>
<path transform="translate(1131,729)" d="m0 0 4 2 16 11 6 2 10 6 7 6 3 9-4-2-14-11-11-9-14-10z" fill="#454646"/>
<path transform="translate(846,612)" d="m0 0h10l1 1v12l-2 5h-8l-1-2z" fill="#0E0D0D"/>
<path transform="translate(1413,848)" d="m0 0 3 1-2 6 6 5 4 2 3 5-12-2-7-3v-2l-10-3-2-1v-7l4 3v2h5l5 1z" fill="#484A4A"/>
<path transform="translate(1713,827)" d="m0 0 5 1 6 10 4 12 3 5v2l3 1 1 10-4-5-2-6h-2l-3-5-3-9h-2l-3-8-3-3z" fill="#8F9191"/>
<path transform="translate(844,709)" d="m0 0h70v1l-7 1-40 1-16 1h-15l-1-2z" fill="#9A9C9C"/>
<path transform="translate(875,383)" d="m0 0 2 1-10 10-8 7-16 16-8 7-3 2v-2l-3 2h-3v-2l13-10 13-11 10-9 11-9z" fill="#9A9C9C"/>
<path transform="translate(1010,638)" d="m0 0h61l1 3 5 1 1 4h-41l-12 1-5-2v-1l49-1 1-4h-60z" fill="#282829"/>
<path transform="translate(1434,502)" d="m0 0h1v8l7 2-1 3 10 4h9l7-1v-5h1v19l-7 2-1-5 3-1-2-5-9-1-11-5-8-7z" fill="#2B2B2C"/>
<path transform="translate(974,811)" d="m0 0h56l16 1v1l-29 2h-19l-20-1-5-1z" fill="#676A6B"/>
<path transform="translate(1293,541)" d="m0 0h7l1 3h-2v2l-18 4-20 3h-8l3-2 19-5 1-1 15-2z" fill="#F9F9F9"/>
<path transform="translate(1591,487)" d="m0 0 1 2h17v2l-13 3-21 3-16 3-16 2h-10v-1l39-6 15-4z" fill="#6D7071"/>
<path transform="translate(1719,759)" d="m0 0 5 5 1-2v3l-5-1-1-1-1 11-2 7v4h-2l-1 5h-2l-3-6 1-4 3 5v-9l-3 1v-7l3-10 1 4h2l1-4 3 1z" fill="#242425"/>
<path transform="translate(1185,691)" d="m0 0h17l6 1v1l-16 2h-8v2l-5 3-9 1-2 2-2 4-1-7 4-4 6-3z" fill="#696C6D"/>
<path transform="translate(617,862)" d="m0 0h9l30 3 1 2-2 1h-40l-5-3 1-2z" fill="#E2E3E3"/>
<path transform="translate(1245,546)" d="m0 0h5l-1 2-22 4-21 3h-14l2-2 28-5 6-1z" fill="#4E4F4F"/>
<path transform="translate(1730,753)" d="m0 0h1l1 6v10l-3 3-1 8h-2v2h-2v-15l-5 1-1 4v-10l7 3 2-10z" fill="#454646"/>
<path transform="translate(1079,577)" d="m0 0h9l-3 2-15 2h-5v-1h-8l-8 1-17-1v2l-10 2h-24l1-2 18-1 12-1 4-2h15z" fill="#505252"/>
<path transform="translate(819,808)" d="m0 0h12l16 1 38 1h22l17 1v1h-69l-35-1z" fill="#676A6B"/>
<path transform="translate(1382,740)" d="m0 0h24l10 3 4 4-4-1-9-2h-21l-5 1v17h-1l-1-14-3 2-1-2-2 1 2-5 3-3z" fill="#848686"/>
<path transform="translate(1587,442)" d="m0 0 4 1 5 4-1 2-5-4 1 3-7 1-9-2h-89l-8-1v-1l109-1z" fill="#434444"/>
<path transform="translate(1726,844)" d="m0 0 4 5 5 8 2 7v11l3 19 2-4h2l-1 8-2 6-2-4v-4h-2l-1-2-3-24-1-5 2 1-1-8-3-3-4-7z" fill="#474849"/>
<path transform="translate(1312,565)" d="m0 0h3l-3 9-7 9-5 2-4-2 1-4 3-5 8-7z" fill="#E5E5E5"/>
<path transform="translate(712,641)" d="m0 0 81 1 12 2v1h-21l-65-2-7-1z" fill="#9A9C9C"/>
<path transform="translate(571,602)" d="m0 0 7 6 2 2 15 4v2l-2 1h-11l-9-2-4-3v-9z" fill="#0B0A0A"/>
<path transform="translate(1009,468)" d="m0 0 26 2 13 2v1h-25l-6-1-18-1h-41v-1z" fill="#7C8081"/>
<path transform="translate(1171,721)" d="m0 0 8 1h32l-4 2-7 1-6 3h-17l-2-5-4-1z" fill="#646768"/>
<path transform="translate(783,739)" d="m0 0h11l-5 10v6l1 3h-6l-2-1-1-3v-12z" fill="#F9FAFA"/>
<path transform="translate(1040,681)" d="m0 0h2v3l-7 1v2l-6 1-10 3-6 1v2h-9v-6l10-1 7-2h6l5-3z" fill="#282829"/>
<path transform="translate(1240,624)" d="m0 0h13v1l-22 2-19 1h-42l-19-2v-1h31l1 1h24z" fill="#2E2E2F"/>
<path transform="translate(1463,804)" d="m0 0 2 1 3 7v6l-5-5-3-2-7 1-9 5-5 4-7 8-8 10-1-2 4-6 7-8 5-5 9-8 7-3 8 1z" fill="#979999"/>
<path transform="translate(1030,811)" d="m0 0h28l9 2 1 2-5 1h-23l-23-1v-1l16-1z" fill="#292A2A"/>
<path transform="translate(788,467)" d="m0 0h10l12 2v3l-3 2-8 1h-11l-3-3v-2h3z" fill="#919393"/>
<path transform="translate(643,842)" d="m0 0 22 1 9 3v1l-7 1h-15l-14-1-3-3 1-1z" fill="#282829"/>
<path transform="translate(827,741)" d="m0 0 4 1 7 3 4 7v6h-7l-6-9v-3l-4-1-3-2z" fill="#E3E4E4"/>
<path transform="translate(1425,472)" d="m0 0h7l1 3v12h-2v-2l-2-1v-2l-5-1-5 2h-3l1-3 2-3h-2v2l-5-1-4-3 12 1 1-3z" fill="#696C6D"/>
<path transform="translate(796,457)" d="m0 0 2 1v2l11 2 23 2 6 2 7-2 2-1h8l5 2v1h-5l-1-1h-6l-3 2-6 1-22-1-18-4-8-1v2l-4 1v-2l5-4z" fill="#8A8D8D"/>
<path transform="translate(998,852)" d="m0 0h54l7 1 19 1v1h-54l-26-2z" fill="#6B6E6F"/>
<path transform="translate(1237,597)" d="m0 0h3l2 3 4 1 2 6v6l-2 3h-5l-4-4z" fill="#454646"/>
<path transform="translate(1375,946)" d="m0 0h1l-1 7-4 10-4 6-7 6-5-2-7-5v-2l-3-1-4-5v-6l3 3 5 8 9 2v5h3l2-4 4-4 6-13z" fill="#D2D3D4"/>
<path transform="translate(1018,672)" d="m0 0h31l4 1v3h-47v-2z" fill="#9A9C9C"/>
<path transform="translate(1705,815)" d="m0 0 4 2 4 8 3 2h-3l1 7 3 1-1 2-3-2-1 4-1 13-2 3-3-1 1-11 2-7v-8l-4-10z" fill="#535555"/>
<path transform="translate(1449,579)" d="m0 0 2 3-1 15 1 5-2 2-1-2h-14l6-7 4-5z" fill="#676A6B"/>
<path transform="translate(771,830)" d="m0 0h50l22 2v2l-36-1-36-2z" fill="#858788"/>
<path transform="translate(1214,646)" d="m0 0h3l2 1 24 2v1l-55 1h-29l1-2 47-1z" fill="#696C6D"/>
<path transform="translate(1180,751)" d="m0 0 4 2 7 5h4l1 2 3 1 3 3 12 7 5 1v1l-11-1-8-3-10-6-5-5-5-4z" fill="#474848"/>
<path transform="translate(579,549)" d="m0 0h9l24 4-1 2h-7v2l-12-1-14-3-1-3z" fill="#727475"/>
<path transform="translate(1373,942)" d="m0 0 1 3-2 9-2 6-5 8-4 4h-3v-5l-9-1-5-7 1-2 5 6 3 2h8l4-7z" fill="#939595"/>
<path transform="translate(1166,659)" d="m0 0h10l3 1v2l-11 5h-6v-3l-7 1-9-1-1-2-3-2h8v3z" fill="#3C3C3D"/>
<path transform="translate(1405,877)" d="m0 0h4v2l4 2 11 12 2 4-5-2-4-2-5-1-2-4-3-1-2-6z" fill="#999B9B"/>
<path transform="translate(1160,652)" d="m0 0h15v1l-51 4 4 1 14 1-2 2-21-1-8-2 2-2 14-2z" fill="#282829"/>
<path transform="translate(827,642)" d="m0 0h5v15l-2 6-2 1h-8v-2l6-3 1-7-8-8h6z" fill="#989A9A"/>
<path transform="translate(786,738)" d="m0 0h18l-1 5-3 3-5 2-4 8-3-1 1-9 5-7h-8z" fill="#9EA0A0"/>
<path transform="translate(1727,792)" d="m0 0 1 4-2 6-3 4h-2l-1 3h-3l-1 3h-2l-1-6-5 1-1-4h-2l-3-3-1-7 6 5 2 3 9 2 1-2 1 3 3-1z" fill="#818383"/>
<path transform="translate(1047,833)" d="m0 0h16l22 4v1h-44v-1l10-1-4-1z" fill="#5C5F60"/>
<path transform="translate(868,746)" d="m0 0h8l6 1v6l-2 4h-10v-3h-2z" fill="#D7D8D8"/>
<path transform="translate(1536,369)" d="m0 0 2 2 6 13 5 15 4 9v6l-4-3-11-32-2-5z" fill="#3D3E3E"/>
<path transform="translate(1406,295)" d="m0 0h6l-2 6-1-2h-89v-1l71-1z" fill="#494A4A"/>
<path transform="translate(1698,818)" d="m0 0 4 2v14l-4 9-3 2v-13z" fill="#353636"/>
<path transform="translate(1010,708)" d="m0 0 3 2-13 2v2l-6 2v7l7 2 10 1v1h-12l-11-4-1-5 4-5 7-3z" fill="#7C8081"/>
<path transform="translate(1211,473)" d="m0 0m-4 1h4v2l-7 3-10 2-16 5h-8l4-3 22-7z" fill="#4C4E4E"/>
<path transform="translate(641,563)" d="m0 0 9 1v2h2l-1 5-3 1-21 1-26-4v-1l14 1 19 2 9-2 1-3z" fill="#DDDEDE"/>
<path transform="translate(1133,509)" d="m0 0h9l2 4-7 6-13 6-2-1 8-5h2v-2h2l-1-3h-9l4-3z" fill="#7C8081"/>
<path transform="translate(1024,640)" d="m0 0h46l-1 3h-32l-12-1z" fill="#828585"/>
<path transform="translate(861,636)" d="m0 0h1l1 8v18l-5 2-1-21 3-6z" fill="#9D9F9F"/>
<path transform="translate(941,582)" d="m0 0h10l2 1 4 1-3 1-14 1h-83v-1l81-1z" fill="#676A6B"/>
<path transform="translate(906,358)" d="m0 0h2l-1 3h-2l-2 4-11 10-8 4-11 11-2-1 5-6 5-5 13-11z" fill="#E2E3E3"/>
<path transform="translate(1078,851)" d="m0 0h23l15 3-1 2h-64v-1l45-1v-1l-18-1z" fill="#282829"/>
<path transform="translate(670,608)" d="m0 0h58v1l-49 1-8 1-1 2h-4v2h8v1h-14l2-4 3-3z" fill="#414242"/>
<path transform="translate(782,468)" d="m0 0h6v2h-3l3 4 4 2h-12l-1 3-7-1v-3l-11-1v-1l13-2z" fill="#8B8D8D"/>
<path transform="translate(974,851)" d="m0 0h78l-3 2h-36v1h-19l-16-1z" fill="#4C4E4E"/>
<path transform="translate(1382,813)" d="m0 0 6 1 2 7 2 6 1 8-1 6h-1l-2-7-4-5-3-12z" fill="#C4C6C6"/>
<path transform="translate(597,709)" d="m0 0 1 2-4 7-2 7-3 8-5-3 5-10h2l2-5-16-1-1-2h10l10-2z" fill="#57595A"/>
<path transform="translate(810,469)" d="m0 0 4 1-1 2 19 1v1l-18 1-14 3h-16l-7-1 3-2h12l15-2 3-3z" fill="#505253"/>
<path transform="translate(1434,941)" d="m0 0 4 2 3 5 6-1-1 5-4 2-4-1-6 2-1-7z" fill="#484949"/>
<path transform="translate(1393,890)" d="m0 0 4 2 4 3v44l-2-1-2-18v-14l1-5-2-6v-2h-2z" fill="#E2E3E3"/>
<path transform="translate(529,713)" d="m0 0h1l1 27 3 15 4 7-1 2-4-4-2 11h-1l-1-9z" fill="#7C7F7F"/>
<path transform="translate(1720,734)" d="m0 0 3 1 1 9-3 15h-2v2l-2-1v-15z" fill="#404141"/>
<path transform="translate(1576,522)" d="m0 0 5 2 10 6-1 2-11 1-1 3-4-4v-2h2l-2-5z" fill="#151415"/>
<path transform="translate(1709,742)" d="m0 0h1v8l-1 7 1 13-1 7h2l1-2 1 1v11l-3-4-4-7v-30l1 3h2z" fill="#3E3F3F"/>
<path transform="translate(1373,857)" d="m0 0h3v2l2 1-11 4-5 2h-7l-1-1v-5z" fill="#2B2B2B"/>
<path transform="translate(1167,733)" d="m0 0 9 3 5 4h-3l5 5 11 8v2l-5-2-15-10-7-8z" fill="#8D8F8F"/>
<path transform="translate(1507,406)" d="m0 0 3 1 3 9 1 10-5 1-3-5z" fill="#676A6B"/>
<path transform="translate(1726,738)" d="m0 0h3l2 5 1 16h-1l-1-5-3 1-1 7h-1l-1-14z" fill="#29292A"/>
<path transform="translate(1169,676)" d="m0 0 3 1-5 4-16 8-14 3h-9v-1l21-5 15-8z" fill="#676A6B"/>
<path transform="translate(754,806)" d="m0 0h78v1l-30 1-10 1-38-2z" fill="#282829"/>
<path transform="translate(531,742)" d="m0 0 1 2 5 2 6 6 3 5 4 4h12l-3 3h-10l-9-7-6-9-2 4z" fill="#404141"/>
<path transform="translate(708,828)" d="m0 0 45 1 14 1v1h-50l-8-1z" fill="#636666"/>
<path transform="translate(919,612)" d="m0 0h30v1l-14 2h-43v-1z" fill="#8F9292"/>
<path transform="translate(812,741)" d="m0 0 5 1 2 2-1 7-1 6-4-1-3-5v-8z" fill="#F5F5F5"/>
<path transform="translate(1319,534)" d="m0 0h6v2l-12 3-4-1v5l-3 2-4-1v-5l-11-1v-1l23-2z" fill="#9A9C9C"/>
<path transform="translate(1165,716)" d="m0 0h5l1 1 28 2 10 1v1h-32l-9-1-2-1-1 4z" fill="#1E1E1E"/>
<path transform="translate(1440,770)" d="m0 0 4 2 8 10-1 4-7-2-4-5z" fill="#A0A2A3"/>
<path transform="translate(1458,859)" d="m0 0 3 1 2 9 5 3-1 5-1 2-5-1-2-2-1-8z" fill="#454646"/>
<path transform="translate(1721,817)" d="m0 0 4 5 7 9 5 6 1 11-4-4-7-14-1-3-3-1-2-5z" fill="#8B8D8D"/>
<path transform="translate(1441,780)" d="m0 0 4 4 6 1 2-2-1 5-9 2-8 6-2-1 1-14h1v9h6z" fill="#3A3A3B"/>
<path transform="translate(1047,675)" d="m0 0 6 1-3 3-4 1h-26v-3l23-1z" fill="#383839"/>
<path transform="translate(1266,493)" d="m0 0h4v2l-10 5-2 2 2 1h-7l-7-2v-2l8-3z" fill="#7C8081"/>
<path transform="translate(1384,875)" d="m0 0 3 1 2 9 5 5v3h2l3 8-2 18h-1l-1-13v-11h-2l-3-6-5-4z" fill="#B0B1B2"/>
<path transform="translate(891,641)" d="m0 0h71v1l-55 1-4 1h-9l-4 1z" fill="#6B6E6F"/>
<path transform="translate(856,625)" d="m0 0 4 3-1 4-3 3h-13l-1-1v-5l4 1 1-2v2l8-1z" fill="#97999A"/>
<path transform="translate(848,600)" d="m0 0h40v1l-25 1-1 2h-21l4-3z" fill="#5B5D5D"/>
<path transform="translate(738,846)" d="m0 0h14l21 3v1h-27l-10-2z" fill="#454646"/>
<path transform="translate(1037,831)" d="m0 0h13l32 3 12 4v1h-13v-2l-18-3-21-1-5-1z" fill="#323333"/>
<path transform="translate(593,585)" d="m0 0h8l44 6 9 1v1h-21l-33-6-7-1z" fill="#9A9C9C"/>
<path transform="translate(693,826)" d="m0 0 24 1v1l-8 1 8 1v1h-24l-6-2 3-2z" fill="#343435"/>
<path transform="translate(975,809)" d="m0 0h23l30 1v1l-19 1h-32v-2z" fill="#353636"/>
<path transform="translate(1349,891)" d="m0 0 1 2h3v2l-8 7-3 4h-2l-2 5-7 2 6-8z" fill="#EEEFEF"/>
<path transform="translate(676,806)" d="m0 0h35l1 2-7 1h-24l-5-2z" fill="#454646"/>
<path transform="translate(840,641)" d="m0 0h5l1 3-2 17-4-2z" fill="#989A9A"/>
<path transform="translate(873,849)" d="m0 0h50v1l-12 1v1h-27l-10-1z" fill="#4A4C4D"/>
<path transform="translate(573,683)" d="m0 0 14 1 5 3 2 4h-3l-1-3h-13l-8 4v-5z" fill="#282829"/>
<path transform="translate(893,611)" d="m0 0h31v1l-20 3v1h-13v-4z" fill="#696C6D"/>
<path transform="translate(1679,514)" d="m0 0 7 3 5 6-2 2h-7l-6-8v-2z" fill="#E2E3E3"/>
<path transform="translate(1337,528)" d="m0 0 4 1h-3v2l-10 3-3 1h-17l3-2 19-4z" fill="#4B4C4C"/>
<path transform="translate(1675,491)" d="m0 0 4 2 10 11 8 14-3-1-5-5-2-1-5-9-6-9z" fill="#E2E3E3"/>
<path transform="translate(1434,895)" d="m0 0 5 2 9 8 4 6 1 9 1 8-2-4-8-18-5-6z" fill="#282829"/>
<path transform="translate(1244,502)" d="m0 0h6l3 2v2l-5 2h-13l-2-1v-2l5-2z" fill="#E2E3E3"/>
<path transform="translate(1040,872)" d="m0 0h37l-4 2-28 1h-14l1-2z" fill="#676A6B"/>
<path transform="translate(1075,617)" d="m0 0 4 4 6 12-1 2-8-6-5-3 1-4h3z" fill="#29292A"/>
<path transform="translate(1413,495)" d="m0 0 1 2-2 8-5 10-5-2 1-5 6-8z" fill="#2A2A2B"/>
<path transform="translate(1421,784)" d="m0 0h1v11l-2 1v-5l-6 14-4 4v-7l6-11 3-1z" fill="#646666"/>
<path transform="translate(808,635)" d="m0 0 6 1-4 1 1 5v17h-3l-2-15v-7z" fill="#909293"/>
<path transform="translate(1586,488)" d="m0 0 3 1 1 2-18 5-24 4h-7v-1l27-5z" fill="#343535"/>
<path transform="translate(1375,826)" d="m0 0 2 1 3 20 1 2v6l-3 4h-2v-2h-5l1-3-3-2 4-1 6 3v-4l-2-1-1-14z" fill="#7A7C7C"/>
<path transform="translate(1017,652)" d="m0 0 4 1v9l-1 2h-9l2-6z" fill="#D5D6D6"/>
<path transform="translate(1170,716)" d="m0 0 53 1v1l-19 2-33-2z" fill="#737677"/>
<path transform="translate(878,643)" d="m0 0h1v17l-1 4-5-1v-13l2 3-1-7h3z" fill="#989A9A"/>
<path transform="translate(844,654)" d="m0 0h1v7l12-1 1-2v6l4-1-1 2h-19l-1-5 3 1z" fill="#474949"/>
<path transform="translate(1722,767)" d="m0 0h2v14l-4 2-3-4 2-11z" fill="#A8AAAA"/>
<path transform="translate(799,466)" d="m0 0h10l12 2 16 1 1 2-8 1h-10l-2-2-12-1-7-2z" fill="#0B0A0A"/>
<path transform="translate(832,611)" d="m0 0h1v26h-7v-25h1l1 15 3 5z" fill="#8A8C8C"/>
<path transform="translate(1718,909)" d="m0 0h2l3 3 3-2-1 4-4 7-4 1-2-5 1-5z" fill="#282829"/>
<path transform="translate(1390,862)" d="m0 0h5v4l5 2 5 4 3 3 6 4-3 1-2-1v-2h-4l-1 3-5-8-5-4v-2h-2v-2h-2z" fill="#444546"/>
<path transform="translate(1715,765)" d="m0 0 2 1v9l-1 10h-2l-1 5h-2l-3-6 1-4 3 5 2-18z" fill="#0C0B0B"/>
<path transform="translate(604,555)" d="m0 0h7l20 3 2 1v2l2 1-16-2-14-2z" fill="#656767"/>
<path transform="translate(945,754)" d="m0 0h15l2 3-2 2h-15l-1-4z" fill="#0B0A0A"/>
<path transform="translate(1477,471)" d="m0 0 2 2 1 13-5 2-3-1 1-10h3z" fill="#424343"/>
<path transform="translate(1010,638)" d="m0 0h61l1 3h4v2h-7l1-4h-60z" fill="#464848"/>
<path transform="translate(1455,810)" d="m0 0 7 1 5 6 2-2v5l-5-3-4-3-6 1-9 2v2l-5 3-2-1 9-7z" fill="#666869"/>
<path transform="translate(1699,786)" d="m0 0 3 1 3 4v5l3 1v2h2v2l5-2 3 2v2l-9-1-2-4-3-1-2-3-1 4-3-6v-5z" fill="#494A4B"/>
<path transform="translate(611,554)" d="m0 0 11 1 33 4v2l-15-1-24-3-5-1z" fill="#696C6D"/>
<path transform="translate(580,695)" d="m0 0h6l3 4v4l-5 2-4-2-2-6z" fill="#E2E3E3"/>
<path transform="translate(1139,638)" d="m0 0 2 1-5 6-4 2v1l8 1v1h-15l-3-2v-3l12-3z" fill="#7C8081"/>
<path transform="translate(1460,527)" d="m0 0 1 2v5l-10 5-5 3-2-2 8-7 5-5z" fill="#626465"/>
<path transform="translate(1377,778)" d="m0 0 4 1 2-1 1 7v8h-3l-2 3z" fill="#C9CBCB"/>
<path transform="translate(583,651)" d="m0 0h7l11 3 1 2-3 2-7 2v-3l-4-2z" fill="#282829"/>
<path transform="translate(610,588)" d="m0 0 23 4 11 1-1 2-7 1-17-3-9-4z" fill="#7C8081"/>
<path transform="translate(1701,865)" d="m0 0 4 1 3 5v7l-5 1-1-1z" fill="#676A6B"/>
<path transform="translate(1135,679)" d="m0 0 3 1-1 1 2 2-1 2-13 4h-3v-3z" fill="#2A2A2B"/>
<path transform="translate(841,604)" d="m0 0h21l1 4-22-1v6h-1v-8z" fill="#B3B5B5"/>
<path transform="translate(1154,488)" d="m0 0h11l-4 4-8 4-4-1v-3z" fill="#E2E3E3"/>
<path transform="translate(843,411)" d="m0 0 2 1-7 9-6 5v-2l-3 2h-3v-2l13-10z" fill="#727575"/>
<path transform="translate(1721,893)" d="m0 0h2l2 5v11l-4 1-1-1v-13z" fill="#909393"/>
<path transform="translate(814,636)" d="m0 0 4 1-5 2-1 2 4 1v2l-3 2-1 6h2l5 8 3 2-4 1-4-6h-3l-1-15-1-2 1-3z" fill="#4C4D4E"/>
<path transform="translate(1376,866)" d="m0 0 3 1-7 7-1 4h-9l2-4z" fill="#282829"/>
<path transform="translate(802,807)" d="m0 0 2 1 14 1v1l-9 1h-17l-26-1v-1l28-1z" fill="#5E6162"/>
<path transform="translate(1272,670)" d="m0 0 2 2 5 18 1 6v9h-2l-3-18-3-12z" fill="#8C8E8E"/>
<path transform="translate(1200,660)" d="m0 0h34v2l-12 1-4 1-1-1h-15l-3-2z" fill="#676A6B"/>
<path transform="translate(1008,640)" d="m0 0h10l-2 2-32 2v-1l-10-1v-1z" fill="#838687"/>
<path transform="translate(748,687)" d="m0 0h1v13l4 1-25-1v-2h19v-10z" fill="#2D2D2E"/>
<path transform="translate(1713,677)" d="m0 0h2l-1 7-5 15-3 3 1-8 2-8h2l-1-4z" fill="#29292A"/>
<path transform="translate(1245,546)" d="m0 0h5l-1 2-15 3h-10l1-3 3-1z" fill="#454647"/>
<path transform="translate(1668,515)" d="m0 0 5 2 5 3v5l-1 1h-6l-3-8z" fill="#1D1C1D"/>
<path transform="translate(848,464)" d="m0 0h6l6 2v2l-5 1h-7l-3 2-3-1-4-2 8-3z" fill="#484949"/>
<path transform="translate(1009,811)" d="m0 0h21l16 1v1l-29 2h-6v-2h5l-7-1z" fill="#676A6B"/>
<path transform="translate(1399,515)" d="m0 0h6l3 2-1 2-7-1-11 4h-11l4-2z" fill="#676A6B"/>
<path transform="translate(1030,811)" d="m0 0h28l2 2-3 1h-24z" fill="#3F4040"/>
<path transform="translate(1411,744)" d="m0 0 5 1 7 3 4 10-4 1-5-8-4-3v-2h-3z" fill="#C6C7C8"/>
<path transform="translate(1258,670)" d="m0 0h2l4 9 3 14-1 12h-1l-3-22z" fill="#676A6B"/>
<path transform="translate(830,424)" d="m0 0h2l-2 4-6 5-4 5-2-1 3-3h-3l-1-3 9-6z" fill="#4E4F4F"/>
<path transform="translate(1734,779)" d="m0 0h1l2 9-1 6-5 1-3-4h2l3-9z" fill="#686B6C"/>
<path transform="translate(582,689)" d="m0 0h8l4 3h-10l-9 1-3 3v12l-2-3v-12l7-3z" fill="#696C6D"/>
<path transform="translate(1709,837)" d="m0 0 2 1v14l-2 3-3-1 1-11z" fill="#676A6B"/>
<path transform="translate(795,739)" d="m0 0h8l-4 6-5 5-2 4-1-4 2-7z" fill="#F7F7F7"/>
<path transform="translate(1231,579)" d="m0 0h31l13 3v1l-9 1-7-2v-2h-28z" fill="#858888"/>
<path transform="translate(1079,577)" d="m0 0h9l-3 2-15 2h-5v-1l-17-1v-1z" fill="#5B5C5D"/>
<path transform="translate(1587,442)" d="m0 0 4 1 5 4-1 2-5-4 1 3-7 1-9-2v-2l12-1z" fill="#282829"/>
<path transform="translate(1694,753)" d="m0 0 2 1v7l-3 9v13l-2-2v-12l2-15z" fill="#29292A"/>
<path transform="translate(1319,537)" d="m0 0h12l-5 4-7 5-1-3-3-1v-2l4-1z" fill="#464747"/>
<path transform="translate(1737,866)" d="m0 0h1l1 11 4 10-1 5-3 3-3-21z" fill="#282829"/>
<path transform="translate(543,753)" d="m0 0 8 4 3 1h11l-3 3-3 1h-9l-5-5z" fill="#2B2B2C"/>
<path transform="translate(1164,700)" d="m0 0 2 4 2 8-1 2 3 1v1h-6l-2-5v-9z" fill="#4A4B4C"/>
<path transform="translate(793,609)" d="m0 0h11l2 1v28h-1l-1-22-4-4-7-1z" fill="#464747"/>
<path transform="translate(1009,603)" d="m0 0h9l2 1v2h27l1 4-1-2h-16l-13-1-1-1-11-1z" fill="#282829"/>
<path transform="translate(1341,528)" d="m0 0h3v3l-12 6-9 1v-2l5-3 10-2v-2z" fill="#2D2E2E"/>
<path transform="translate(1417,299)" d="m0 0h1l1 12h-2v2h-12l4-2 1-2 5-1v-5z" fill="#494A4A"/>
<path transform="translate(1412,294)" d="m0 0h2l-2 7 1 3-4 8h-4l3-10z" fill="#969898"/>
<path transform="translate(1456,738)" d="m0 0 3 1 9 14 5 9-1 4-10-18-6-8z" fill="#3C3C3D"/>
<path transform="translate(577,687)" d="m0 0h13v3h-8l-11 3-1 9h-1v-10l5-4z" fill="#454646"/>
<path transform="translate(828,428)" d="m0 0 2 1-4 6-14 12-4 3-2-1 8-8 8-6z" fill="#D6D7D7"/>
<path transform="translate(1364,771)" d="m0 0 2 1-1 23h-2v9h-1v-17z" fill="#313132"/>
<path transform="translate(1705,705)" d="m0 0h1l-1 9-2 7-2 11-2 1v-7l4-18z" fill="#282829"/>
<path transform="translate(887,692)" d="m0 0h2l2 5v5l-5 1-3-2-1-4h4z" fill="#434444"/>
<path transform="translate(1401,510)" d="m0 0 4 5-12 3-11 3-7-1v-1l21-5 5-1z" fill="#515253"/>
<path transform="translate(1722,784)" d="m0 0 5 1v4h-4l-3 10-2 2v-13l3 1z" fill="#464747"/>
<path transform="translate(1057,583)" d="m0 0 4 1v6l3 1-12-1-1-5z" fill="#818485"/>
<path transform="translate(843,639)" d="m0 0h14l1 4-2 2-10-2-3-2z" fill="#1E1E1E"/>
<path transform="translate(810,469)" d="m0 0 4 1-1 2 19 1v1l-18 1-3 1h-7l-5-1v-1l10-2z" fill="#6A6D6E"/>
<path transform="translate(995,440)" d="m0 0 2 1-28 21-2-1 11-9 8-6z" fill="#7C8081"/>
<path transform="translate(1698,818)" d="m0 0 4 2v11h-4l-1-2v-8z" fill="#737576"/>
<path transform="translate(1727,792)" d="m0 0 1 4-2 6-3 4h-2l-1 3h-3l-1 3h-2v-2h2v-7h2l1-2 1 3 3-1z" fill="#686B6C"/>
<path transform="translate(1082,852)" d="m0 0h18l3 3h-24l3-1z" fill="#464747"/>
<path transform="translate(890,739)" d="m0 0 4 1v12l-6 5-3-1 6-5v-2l-1 2h-2l2-4 1-6z" fill="#E4E5E5"/>
<path transform="translate(561,579)" d="m0 0 10 1 4 2-7 1-1 5h-2l-1 8-2 4 1-9 2-7h-2v-2h2v-2z" fill="#868989"/>
<path transform="translate(1726,760)" d="m0 0 3 4-1 2h-3v13h-1v-12l-5 1-1 4v-10l7 3z" fill="#5B5E5E"/>
<path transform="translate(1169,679)" d="m0 0 3 1-17 10-12 2h-6v-1l16-4z" fill="#373738"/>
<path transform="translate(788,469)" d="m0 0h6l6 2v2l-12 2-3-3v-2z" fill="#E3E3E3"/>
<path transform="translate(980,311)" d="m0 0 2 1-2 4h-6v2l-6 2-1 4-6-1 5-4z" fill="#3E3F40"/>
<path transform="translate(1360,859)" d="m0 0h6l-4 1 1 5-1 1h-7l-1-1v-5z" fill="#404141"/>
<path transform="translate(1259,757)" d="m0 0h2l1 3-5 4h-6l-5-2 1-2 9-1z" fill="#29292A"/>
<path transform="translate(591,719)" d="m0 0h1v6l-3 8-5-3 5-10z" fill="#717475"/>
<path transform="translate(1223,717)" d="m0 0 4 1-1 4-17-1-5-1v-1z" fill="#343535"/>
<path transform="translate(940,335)" d="m0 0h2l-1 3h-2v2l-12 7-5 1 5-5z" fill="#CFD0D0"/>
<path transform="translate(1445,812)" d="m0 0m-1 1m-1 1m-1 1m-1 1m-1 1m-1 1v3l-7 8-8 10-1-2 4-6 7-8z" fill="#8D9090"/>
<path transform="translate(1404,970)" d="m0 0 5 1 2 4-1 4h-5l-2-4z" fill="#F1F1F1"/>
<path transform="translate(576,764)" d="m0 0v3l-7 6-3 1h-7l3-6 9 1z" fill="#2E2E2F"/>
<path transform="translate(1434,502)" d="m0 0h1v8l7 2-1 3 5 2 6 3-2 1-9-4-8-7z" fill="#272728"/>
<path transform="translate(1411,894)" d="m0 0 6 1 11 5v2l5 2 5 3-2 1-12-7-13-6z" fill="#323233"/>
<path transform="translate(1435,780)" d="m0 0h2v2l4 1v7h-6z" fill="#121111"/>
<path transform="translate(809,740)" d="m0 0 2 3v8l1 3-2 3-2 1-1-5v-10z" fill="#343535"/>
<path transform="translate(1187,479)" d="m0 0m-3 1 7 1-4 2-9 3h-8l4-3z" fill="#525454"/>
<path transform="translate(791,462)" d="m0 0h8l15 3v1h-16l-7-2z" fill="#545656"/>
<path transform="translate(1279,584)" d="m0 0h11l-5 8-3-1z" fill="#D6D7D7"/>
<path transform="translate(1394,893)" d="m0 0h2l3 8-2 18h-1z" fill="#949696"/>
<path transform="translate(1714,828)" d="m0 0h2l5 10 3 5-2 1-3-1-3-8-2-1z" fill="#CBCCCC"/>
<path transform="translate(1412,750)" d="m0 0 6 2 3 5v4l-7-2-5-4v-2l8 4v-2z" fill="#4F5051"/>
<path transform="translate(818,743)" d="m0 0h2l4 6v5h-2l-2-3-1 4 1 3h-5l2-1-1-4 2-4z" fill="#969898"/>
<path transform="translate(1301,565)" d="m0 0 3 1-2 3-3 9-4 2-1-3z" fill="#626464"/>
<path transform="translate(785,464)" d="m0 0h12l2 2 4 2h-20z" fill="#292929"/>
<path transform="translate(541,660)" d="m0 0h10l1 1 13 1v1h-25z" fill="#757778"/>
<path transform="translate(1214,628)" d="m0 0h7v1l-15 2-5 2-5-1-3 1-4-3z" fill="#7C8081"/>
<path transform="translate(1421,473)" d="m0 0 4 1-2 6-6-3v2l-5-1-4-3 12 1z" fill="#7F8283"/>
<path transform="translate(796,457)" d="m0 0 2 1v2l11 2 1 2-11-1-8-1v2l-4 1v-2l5-4z" fill="#989A9A"/>
<path transform="translate(951,328)" d="m0 0 3 1h10v1l-16 4-6 1 3-3z" fill="#909292"/>
<path transform="translate(1732,765)" d="m0 0h1v8l-1 1-1 8-3 1v-11l3-3z" fill="#232223"/>
<path transform="translate(1e3 688)" d="m0 0h3l1 2h10l-1 2h-4v2h-9z" fill="#474849"/>
<path transform="translate(560,577)" d="m0 0 1 3h4v2l-3 3-3 8-2-1 1-11z" fill="#434444"/>
<path transform="translate(1349,891)" d="m0 0 1 2h3v2l-8 7h-4l2-4z" fill="#CCCDCD"/>
<path transform="translate(1532,853)" d="m0 0h5v2l-5 2-14 2h-5l2-2 15-3z" fill="#565859"/>
<path transform="translate(1377,742)" d="m0 0 2 1 3 2-1 17h-1l-1-14-3 2-1-2-2 1 2-5z" fill="#BFC0C1"/>
<path transform="translate(829,655)" d="m0 0 2 1-1 7-2 1h-8v-2l6-3 1-2h2z" fill="#C8C9C9"/>
<path transform="translate(841,637)" d="m0 0h19l-1 5-2-2h-17l-1-2z" fill="#494A4A"/>
<path transform="translate(1008,812)" d="m0 0h18v1l-11 1-4-1v2h-13v-2z" fill="#949696"/>
<path transform="translate(1452,796)" d="m0 0h8l-3 1v2l-3 1-3 4-4-1 2-5z" fill="#E0E0E1"/>
<path transform="translate(1250,768)" d="m0 0m-3 1 6 1v2l-5 1h-14l1-2z" fill="#A3A4A5"/>
<path transform="translate(1246,762)" d="m0 0 5 1 6 1-5 4-11-1 6-3z" fill="#484A4A"/>
<path transform="translate(1242,661)" d="m0 0 7 1v3 2l-11-1v-2l3-1z" fill="#676A6B"/>
<path transform="translate(653,582)" d="m0 0 6 1 3 1v2h2l-2 4-3 2h-5l4-2-1-4z" fill="#949696"/>
<path transform="translate(1390,469)" d="m0 0 4 1v3l11 1v1l-22 1v-1l5-1z" fill="#4F5051"/>
<path transform="translate(1713,827)" d="m0 0 5 1 6 10 1 4h-2l-6-9-1-5h-2l-1 4z" fill="#898B8B"/>
<path transform="translate(1696,522)" d="m0 0 4 1 1 5-6 1h-8l3-2 5-3z" fill="#66696A"/>
<path transform="translate(653,580)" d="m0 0 20 1 11 1v1h-27z" fill="#454646"/>
<path transform="translate(813,469)" d="m0 0 8 1v1l14 1v1h-24z" fill="#313132"/>
<path transform="translate(1379,883)" d="m0 0m-3 0 4 2 1 3-1 2h-5l-2-3v-3z" fill="#EBECEC"/>
<path transform="translate(1261,687)" d="m0 0 3 2 2 16v7h-1l-4-20z" fill="#363737"/>
<path transform="translate(859,600)" d="m0 0h29v1l-25 1-1 2-6-2z" fill="#434445"/>
<path transform="translate(1406,295)" d="m0 0h6l-2 6-1-2h-7l-5-1 2-2z" fill="#353536"/>
<path transform="translate(1704,854)" d="m0 0 1 3h3l2 7v5l-4-4-1-5-1 2-2-1z" fill="#282829"/>
<path transform="translate(539,824)" d="m0 0 24 5v1h-8l-11-2-5-2z" fill="#8F9191"/>
<path transform="translate(1250,778)" d="m0 0h12v2l-2 1-14 1 1-3z" fill="#373839"/>
<path transform="translate(1401,741)" d="m0 0h10l8 4 1 2-4-1-9-2-6-2z" fill="#9EA0A0"/>
<path transform="translate(1202,717)" d="m0 0h21v1l-19 2h-5v-2z" fill="#6A6D6E"/>
<path transform="translate(887,601)" d="m0 0h2l-1 5-5 3h-4v-2h2l1-4z" fill="#D6D7D7"/>
<path transform="translate(1426,472)" d="m0 0h6l-1 9-5-2z" fill="#979999"/>
<path transform="translate(848,468)" d="m0 0h7l2 2-14 3h-8v-1l10-2z" fill="#6C6F70"/>
<path transform="translate(1187,722)" d="m0 0h14l-2 2-6 1v1h-10z" fill="#8A8D8D"/>
<path transform="translate(1344,957)" d="m0 0 5 5 4 3 8 1-1 5h-2v-4l-9-1-5-7z" fill="#7B7D7D"/>
<path transform="translate(650,917)" d="m0 0 4 2 1 1v9l-3-1-2-9z" fill="#6D7070"/>
<path transform="translate(1708,775)" d="m0 0 1 2h2l1-2 1 1v11l-6-8z" fill="#525354"/>
<path transform="translate(1681,644)" d="m0 0h1l-1 8-5 18-1-4 5-21z" fill="#373838"/>
<path transform="translate(1286,589)" d="m0 0 1 2h2l-2 5-5 2-2-5 5-2z" fill="#29292A"/>
<path transform="translate(941,582)" d="m0 0h10l2 1 4 1-3 1-16 1z" fill="#6C7071"/>
<path transform="translate(1354,379)" d="m0 0 2 4-3 7-3 5h-2l3-9z" fill="#454646"/>
<path transform="translate(888,372)" d="m0 0m-1 1m-1 1m-1 1m-2 1h2l-2 4-10 10-2-1 5-6 5-5z" fill="#DCDDDD"/>
<path transform="translate(1416,971)" d="m0 0 3 1-4 5-4 1-2-6z" fill="#595B5B"/>
<path transform="translate(1720,893)" d="m0 0 1 3-1 13h-2l-1-10 2-5z" fill="#444646"/>
<path transform="translate(1742,890)" d="m0 0h2l-1 8-2 6-2-4-1-5 3-3z" fill="#4F5050"/>
<path transform="translate(1415,793)" d="m0 0 1 2-2 7v3l-4 4v-7z" fill="#929494"/>
<path transform="translate(1461,799)" d="m0 0 2 2 1 8-9-2 1-2 3-1z" fill="#DADBDB"/>
<path transform="translate(868,746)" d="m0 0h5l1 5-4 3h-2z" fill="#E2E3E3"/>
<path transform="translate(858,742)" d="m0 0h3v11l-4-4h-2l2-6z" fill="#222"/>
<path transform="translate(611,554)" d="m0 0 11 1 9 2v1h-9l-11-2z" fill="#686B6C"/>
<path transform="translate(1421,482)" d="m0 0h7v3l-10 2-2 1v-5z" fill="#29292A"/>
<path transform="translate(1355,879)" d="m0 0 3 1h-2l-2 6-5 4 2-9z" fill="#525455"/>
<path transform="translate(542,757)" d="m0 0 5 2 3 2h12l-3 3h-10l-7-6z" fill="#616464"/>
<path transform="translate(1708,733)" d="m0 0h2v9l-1 7h-2l-1-4z" fill="#959798"/>
<path transform="translate(1014,656)" d="m0 0 1 2 3-1-1 6 3 1h-9l2-6z" fill="#969898"/>
<path transform="translate(659,582)" d="m0 0 25 1v1h-20v2h-2v-2h-3z" fill="#2C2D2D"/>
<path transform="translate(1319,534)" d="m0 0h6v2l-12 3-2-3z" fill="#959797"/>
<path transform="translate(1393,890)" d="m0 0 4 2 4 3-1 7-3-2-1-7h-2z" fill="#D8D9D9"/>
<path transform="translate(561,767)" d="m0 0 1 4-4 2-7-4v-1z" fill="#0B0A0A"/>
<path transform="translate(530,749)" d="m0 0h1l1 9-1 13h-1l-1-9v-10z" fill="#9A9C9C"/>
<path transform="translate(831,710)" d="m0 0 5 2-3 2h-18v-1l11-1z" fill="#7C8081"/>
<path transform="translate(538,646)" d="m0 0 29 1v1l-30 1z" fill="#464748"/>
<path transform="translate(1104,589)" d="m0 0h8l-1 3h-14v-2z" fill="#6B6E6F"/>
<path transform="translate(1031,584)" d="m0 0h7l1 4-2 1-7-1v-3z" fill="#2B2B2C"/>
<path transform="translate(651,582)" d="m0 0 5 2 3 3-1 4-4 1h-9v-1l11-2 1-2-3-1v-2l-3-1z" fill="#E2E3E3"/>
<path transform="translate(1351,525)" d="m0 0h7l-1 2-10 3h-3v-2l-2-1z" fill="#383839"/>
<path transform="translate(1029,312)" d="m0 0 17 1v1l-25 1 3-2z" fill="#282829"/>
<path transform="translate(1721,817)" d="m0 0 4 5 5 6v3l-4-2v-2l-3-1-2-5z" fill="#929494"/>
<path transform="translate(1434,781)" d="m0 0h1l1 10 4 1-5 4-2-1z" fill="#959797"/>
<path transform="translate(850,752)" d="m0 0 2 3 5-2 2-1-2 6h-8l-1-3h2z" fill="#A2A3A4"/>
<path transform="translate(1433,760)" d="m0 0 2 2 1 3v15h-1l-1-12h-2v-6z" fill="#B0B1B2"/>
<path transform="translate(1270,540)" d="m0 0h5l-4 3-7 2h-4l1-3z" fill="#7A7D7D"/>
<path transform="translate(799,466)" d="m0 0h10l9 2v1h-12l-7-2z" fill="#141313"/>
<path transform="translate(1373,942)" d="m0 0 1 3-3 10-4 1 2-6z" fill="#555758"/>
<path transform="translate(1396,849)" d="m0 0 4 3v2h2v3l2 1-6-1-2-1z" fill="#303031"/>
<path transform="translate(1708,780)" d="m0 0 3 3 1 2 2-4 2 4h-2l-1 5h-2l-3-6z" fill="#2D2D2E"/>
<path transform="translate(865,736)" d="m0 0h2l-1 4-4 2h-3l-2-4 4-1z" fill="#939595"/>
<path transform="translate(1258,670)" d="m0 0h2l4 9 1 7h-2z" fill="#585A5A"/>
<path transform="translate(811,657)" d="m0 0 2 3-1 4h-5l-2-5h6z" fill="#29292A"/>
<path transform="translate(848,464)" d="m0 0h6l6 2v2l-5 1-8-3z" fill="#282829"/>
<path transform="translate(1384,881)" d="m0 0h1l1 15-1-2h-2v-8l-1-2h-4v-2h5z" fill="#808383"/>
<path transform="translate(1393,824)" d="m0 0 5 1-5 9h-1l-1-9z" fill="#2F2F30"/>
<path transform="translate(1726,801)" d="m0 0 1 2-3 5h-2v3l-7 2 2-4 3-1z" fill="#363737"/>
<path transform="translate(1390,862)" d="m0 0h5v4l5 2-2 3-4-3v-2h-2v-2h-2z" fill="#616363"/>
<path transform="translate(1316,818)" d="m0 0h1v6l-3 2h-9l3-3h7z" fill="#383939"/>
<path transform="translate(1705,815)" d="m0 0 4 2 2 7-2 4-4-10z" fill="#363637"/>
<path transform="translate(550,763)" d="m0 0h11l3 2-6 2-8-2z" fill="#969898"/>
<path transform="translate(1709,742)" d="m0 0h1v8l-2 7h-2v-11l1 3h2z" fill="#454646"/>
<path transform="translate(789,746)" d="m0 0h3v9h-4z" fill="#5E5F5F"/>
<path transform="translate(1181,667)" d="m0 0 8 2-1 3-6 1v-2l-4-1z" fill="#282829"/>
<path transform="translate(1456,562)" d="m0 0h5l-8 6h-3v-4z" fill="#100F0F"/>
<path transform="translate(1171,482)" d="m0 0 2 1-1 2 2 2-7 1-4-2 3-2z" fill="#6A6D6E"/>
<path transform="translate(1387,1024)" d="m0 0h5l-2 2-11 3-4-1 3-2z" fill="#4D4F50"/>
<path transform="translate(650,915)" d="m0 0 3 1-1 2-2-1 2 9-5-5 1-4z" fill="#3B3C3C"/>
<path transform="translate(1699,786)" d="m0 0 3 1 3 4-1 3v-2l-3-1-2 4-1-8z" fill="#323333"/>
<path transform="translate(1734,779)" d="m0 0h1l2 9-1 4v-3h-2v4l-3-1 2-6z" fill="#484949"/>
<path transform="translate(1250,749)" d="m0 0h1v7l-2 4-3 2-3-1 4-3z" fill="#48494A"/>
<path transform="translate(1294,579)" d="m0 0 2 1v3l2 1-8 3-3 2 2-4z" fill="#353536"/>
<path transform="translate(1721,891)" d="m0 0h4l1 2v14h-1l-2-14h-2z" fill="#5C5E5F"/>
<path transform="translate(1406,885)" d="m0 0 9 9-5-1-4-2z" fill="#646768"/>
<path transform="translate(1366,873)" d="m0 0h3l1 5h-8l2-4z" fill="#57595A"/>
<path transform="translate(1224,761)" d="m0 0 4 2 1 4-1 1-9 1-3-2 10-1z" fill="#3E3F3F"/>
<path transform="translate(867,745)" d="m0 0h1v9l-2 3-4-1h2l2-9z" fill="#A1A3A3"/>
<path transform="translate(1112,691)" d="m0 0 4 1 6-1v1l6 1v1h-15l-2-2z" fill="#29292A"/>
<path transform="translate(562,583)" d="m0 0 3 1-1 7h-4l1-6z" fill="#656869"/>
<path transform="translate(697,498)" d="m0 0 2 2 1 5-3 4-3-9z" fill="#7C8081"/>
<path transform="translate(830,424)" d="m0 0h2l-2 4-6 4v-3l-2-2 4-2z" fill="#535556"/>
<path transform="translate(1341,954)" d="m0 0 3 3 3 5-1 4-5-6z" fill="#C4C6C6"/>
<path transform="translate(1441,780)" d="m0 0 3 4-2 7-5 1-2-2h6z" fill="#525454"/>
<path transform="translate(693,656)" d="m0 0h2v11l-3-1v-7z" fill="#282829"/>
<path transform="translate(1413,848)" d="m0 0 3 1-2 6 3 4-5-2-2-2z" fill="#303132"/>
<path transform="translate(1036,832)" d="m0 0 11 1v2h-10z" fill="#6D7071"/>
<path transform="translate(571,692)" d="m0 0h2l-1 7v9l-2-3v-12z" fill="#6B6E6F"/>
<path transform="translate(1586,488)" d="m0 0 3 1 1 2-7 2-4-1h2v-2z" fill="#3D3E3E"/>
<path transform="translate(1409,304)" d="m0 0 2 2-1 5-5 1 1-5h3z" fill="#8D8F8F"/>
<path transform="translate(1434,941)" d="m0 0 4 2 1 4-1 2-3-1z" fill="#979999"/>
<path transform="translate(1703,868)" d="m0 0 3 3 1 6-2 1-2-1z" fill="#9A9C9C"/>
<path transform="translate(1376,846)" d="m0 0 1 3 3 1-1 4-6-2z" fill="#E2E3E3"/>
<path transform="translate(1267,758)" d="m0 0 1 3-8 8-3-1 8-7z" fill="#D8D9D9"/>
<path transform="translate(585,552)" d="m0 0h8l10 2v1h-12l-6-2z" fill="#4B4C4C"/>
<path transform="translate(755,475)" d="m0 0h9l-3 3h-8z" fill="#F9F9F9"/>
<path transform="translate(818,438)" d="m0 0m-1 1m-1 1m-2 1h2l-2 4-6 5-2-1z" fill="#C9CACA"/>
</svg>
